<?xml version="1.0" standalone="no"?>
<!DOCTYPE svg PUBLIC "-//W3C//DTD SVG 20010904//EN"
 "http://www.w3.org/TR/2001/REC-SVG-20010904/DTD/svg10.dtd">
<svg version="1.0" xmlns="http://www.w3.org/2000/svg"
 width="500.000000pt" height="500.000000pt" viewBox="0 0 500.000000 500.000000"
 preserveAspectRatio="xMidYMid meet">

<g transform="translate(0.000000,500.000000) scale(0.100000,-0.100000)"
fill="#000000" stroke="none">
<path d="M0 2935 c0 -1929 1 -2064 17 -2058 16 6 16 5 0 -17 -21 -31 -21 -40
0 -40 15 0 15 -1 0 -18 -10 -10 -17 -22 -17 -27 0 -5 7 0 15 11 19 26 19 4 -1
-24 -8 -13 -14 -37 -12 -56 l3 -34 30 25 c22 18 25 24 10 19 -19 -6 -19 -5 2
12 25 22 81 18 90 -5 7 -17 -31 -59 -69 -79 -15 -8 -29 -15 -31 -17 -2 -1 -11
4 -20 12 -15 11 -17 11 -17 -1 0 -8 5 -19 12 -26 9 -9 9 -12 0 -12 -7 0 -12
-4 -12 -9 0 -6 20 -13 45 -17 25 -3 45 -10 45 -14 0 -9 -50 -34 -70 -35 -9 0
-16 -12 -18 -31 -3 -29 0 -32 33 -38 40 -8 60 -1 29 10 -10 3 -26 8 -34 11
-21 8 98 34 129 29 14 -2 29 -5 34 -5 4 -1 7 -6 7 -12 0 -5 -4 -7 -10 -4 -5 3
-10 1 -10 -6 0 -6 8 -9 19 -6 10 2 24 1 31 -3 17 -11 -36 -57 -103 -89 -56
-27 -57 -27 -42 -5 20 31 19 45 -1 16 -15 -22 -62 -54 -50 -34 4 6 -2 8 -14 5
-18 -5 -20 -14 -20 -105 0 -86 3 -104 21 -130 l21 -29 -21 -23 c-12 -13 -21
-35 -20 -52 0 -25 1 -26 8 -9 5 11 9 25 11 30 6 32 87 85 129 85 43 0 65 -26
74 -91 6 -36 17 -39 135 -39 76 0 132 5 158 15 42 14 109 11 120 -6 3 -5 14
-9 25 -9 16 0 9 9 -29 39 -53 43 -92 96 -92 129 0 23 48 82 68 82 7 0 20 7 29
15 19 20 31 16 57 -19 15 -20 22 -46 24 -101 4 -73 22 -97 22 -30 0 46 15 82
40 95 20 11 21 10 15 -10 -6 -19 -5 -21 13 -11 32 17 40 14 50 -21 16 -57 13
-90 -13 -130 l-26 -39 450 1 c247 1 452 4 455 7 3 4 -1 18 -11 32 -16 26 -16
26 4 8 11 -9 22 -14 26 -11 4 4 5 -3 2 -15 -4 -23 18 -30 31 -9 4 7 3 8 -4 4
-7 -4 -10 -2 -7 6 3 8 -8 24 -25 36 -16 13 -30 27 -30 32 0 5 20 -9 45 -32 24
-23 42 -44 40 -47 -2 -4 10 -8 26 -9 37 -3 33 7 -35 78 -26 27 -44 50 -39 50
5 0 34 -29 64 -64 l54 -65 692 0 692 -1 -4 63 c-14 186 -14 216 4 210 11 -3
12 -2 4 4 -8 6 -14 48 -16 118 -3 61 -8 119 -12 130 -5 15 -4 16 3 6 7 -10 10
49 11 187 0 122 -4 202 -9 202 -6 0 -10 9 -10 20 0 11 3 20 8 20 4 0 7 46 7
103 0 179 10 243 54 351 58 139 88 250 107 390 9 67 16 132 16 145 0 24 1 24
14 6 8 -10 14 -25 14 -32 0 -7 4 -13 8 -13 5 0 24 -24 42 -52 39 -62 160 -228
166 -228 8 0 3 8 -55 86 -33 43 -57 83 -54 89 4 5 3 7 -2 3 -5 -5 -13 0 -19
11 -6 10 -21 36 -34 57 -12 22 -31 54 -42 71 -11 18 -17 41 -14 50 4 14 3 15
-4 5 -9 -13 -12 2 -28 108 -1 8 -5 24 -9 35 -7 20 -6 20 9 1 24 -30 19 -9 -6
25 -13 17 -22 44 -22 64 0 19 -4 31 -10 28 -5 -3 -6 -1 -2 5 4 6 2 22 -4 34
-11 23 -11 23 5 3 9 -11 26 -38 37 -60 11 -22 24 -42 29 -45 4 -3 33 -55 64
-115 31 -61 53 -101 49 -90 -25 72 -36 98 -68 162 -20 40 -35 77 -34 81 2 5
-16 40 -40 78 -37 58 -39 64 -13 37 16 -18 32 -33 36 -33 3 0 -7 24 -22 53
-15 28 -28 57 -28 62 -1 6 -3 17 -4 25 -1 13 -3 13 -12 0 -9 -12 -10 -12 -5 3
3 10 6 21 6 24 0 3 13 -10 29 -30 15 -20 31 -54 35 -76 7 -44 25 -66 19 -23
l-3 27 11 -25 c7 -14 11 -28 11 -32 -1 -5 2 -8 6 -8 13 0 65 -124 77 -184 9
-41 17 -28 10 14 -4 25 -8 55 -9 67 -1 11 -4 19 -7 17 -4 -2 -10 3 -13 12 -4
10 -2 13 6 8 7 -4 2 6 -10 23 -11 16 -30 62 -41 102 -11 40 -23 82 -27 93 -5
17 -3 20 10 15 9 -4 16 -2 16 3 0 6 -4 10 -8 10 -13 0 -44 59 -37 70 4 6 16 8
28 4 19 -6 20 -5 10 8 -7 8 -10 17 -7 20 11 12 14 58 3 58 -8 0 -6 7 4 18 10
10 14 22 10 25 -3 4 -1 7 6 7 7 0 9 5 5 13 -4 7 -3 9 2 4 12 -12 12 -30 -1
-39 -6 -5 -5 -12 5 -19 13 -9 12 -10 -3 -5 -11 4 -16 2 -12 -5 10 -16 28 -5
32 19 2 12 4 31 6 43 2 11 10 25 18 30 8 5 10 9 5 9 -5 0 1 11 14 25 12 13 27
22 31 19 5 -3 9 -1 9 5 0 6 12 30 28 54 27 43 47 58 47 35 0 -6 6 -13 14 -16
9 -3 11 0 6 8 -6 10 -4 12 9 7 10 -4 15 -3 11 3 -3 6 3 10 15 10 12 0 18 -4
15 -10 -4 -6 1 -7 10 -3 14 5 11 10 -14 25 -17 11 -31 22 -31 24 0 9 75 -37
76 -46 1 -6 2 -14 3 -20 0 -5 6 -9 13 -7 7 1 12 -7 13 -17 0 -11 7 -22 15 -24
13 -5 13 -3 1 11 -8 11 -9 17 -2 17 6 0 18 -11 27 -25 15 -23 34 -26 34 -4 0
6 -5 7 -12 3 -7 -5 -9 -2 -5 9 3 9 -1 21 -11 29 -13 11 -14 11 -8 -1 6 -9 5
-12 -5 -9 -8 3 -13 10 -12 16 2 7 -4 9 -14 5 -12 -5 -14 -3 -8 7 6 10 4 12 -8
7 -14 -5 -15 -3 -5 13 8 12 15 15 19 9 4 -7 9 -4 13 6 9 24 9 24 -26 15 -30
-9 -31 -8 -14 5 10 8 23 12 27 9 5 -3 9 1 9 8 0 10 3 9 9 -1 8 -12 12 -13 26
-1 13 11 15 11 13 0 -2 -7 2 -14 9 -17 8 -3 11 3 8 16 -4 22 6 20 45 -10 13
-9 13 -10 -2 -6 -9 3 -24 0 -34 -8 -16 -11 -20 -10 -31 4 -7 9 -13 11 -13 5 0
-16 27 -37 34 -26 5 8 63 10 99 3 15 -2 6 -28 -18 -51 -13 -12 -22 -26 -20
-30 5 -8 -19 -20 -38 -20 -7 0 -4 7 7 15 11 8 15 19 10 26 -5 9 -10 5 -17 -12
-6 -13 -9 -27 -9 -31 1 -5 -4 -7 -11 -5 -16 3 -18 -54 -2 -73 25 -30 46 -82
40 -98 -3 -9 -3 -13 1 -9 4 4 19 -14 34 -41 47 -81 47 -85 -7 -140 -97 -100
-193 -221 -193 -242 0 -4 -11 -13 -25 -20 -17 -9 -21 -16 -14 -21 8 -4 4 -9
-10 -14 -12 -3 -19 -11 -16 -16 3 -5 -1 -6 -9 -3 -9 3 -13 11 -9 17 3 5 2 7
-4 4 -6 -4 -9 17 -8 53 2 40 -1 57 -9 54 -13 -5 -16 -44 -3 -44 4 0 5 -5 2
-10 -5 -8 -11 -7 -21 1 -7 6 -11 16 -7 22 3 6 1 7 -5 3 -19 -11 -14 -48 13
-91 59 -98 68 -122 76 -200 16 -151 49 -249 189 -555 65 -141 146 -327 210
-480 27 -63 89 -202 139 -309 50 -107 88 -198 84 -204 -3 -6 -2 -8 3 -5 10 7
36 -17 28 -25 -7 -7 41 -100 82 -160 19 -27 35 -53 35 -58 1 -5 2 -13 3 -19 0
-5 5 -10 9 -10 9 1 42 -46 66 -93 12 -23 31 -37 31 -23 0 2 -34 54 -75 115
-41 62 -75 116 -75 121 0 4 -4 10 -9 12 -15 5 -60 108 -54 124 3 7 10 11 15 7
6 -3 23 -7 37 -9 60 -7 317 -146 306 -165 -4 -5 0 -7 7 -4 14 5 34 -9 58 -39
9 -12 10 -17 3 -12 -8 4 -13 2 -13 -4 0 -7 7 -10 15 -6 22 8 116 -96 101 -111
-3 -3 -13 8 -23 25 -10 18 -24 34 -32 37 -11 4 -10 1 2 -13 9 -10 17 -23 17
-28 0 -5 9 -20 20 -34 16 -20 22 -22 29 -11 6 9 11 10 15 2 4 -6 18 -11 32
-11 l24 0 0 229 0 230 -33 46 c-17 26 -37 56 -43 67 -6 10 -21 26 -33 34 -11
8 -21 23 -21 32 1 14 4 13 20 -7 12 -14 20 -18 20 -10 0 8 -9 20 -20 26 -11 7
-24 27 -30 45 -10 32 -10 32 -4 -7 l5 -40 -33 40 c-18 22 -32 43 -30 48 1 5
-2 6 -6 3 -5 -3 -17 3 -27 14 -20 22 -7 28 14 7 18 -16 -15 38 -51 85 -28 35
-40 40 -66 25 -16 -11 -16 8 1 22 8 6 18 7 23 3 4 -4 2 1 -5 10 -7 9 -10 22
-6 27 3 6 0 9 -8 6 -7 -3 -21 3 -31 14 -10 11 -24 18 -30 14 -8 -4 -8 -2 0 6
9 10 19 9 44 -4 18 -9 29 -12 26 -6 -4 6 -27 19 -51 30 -46 20 -61 38 -25 28
11 -3 18 -2 15 3 -2 4 -19 10 -37 13 -18 3 -42 9 -52 13 -15 6 -18 4 -12 -7 4
-8 -2 -3 -13 10 -12 12 -18 28 -14 34 4 6 0 8 -10 4 -9 -3 -19 -2 -22 3 -9 15
28 11 49 -5 15 -11 16 -15 5 -16 -8 0 -6 -4 6 -8 25 -10 41 -3 26 12 -6 6 -11
19 -11 29 0 11 -5 15 -15 12 -8 -4 -15 -1 -15 6 0 10 -3 10 -15 0 -9 -7 -18
-10 -22 -7 -3 4 -12 2 -20 -4 -8 -7 -13 -8 -13 -1 0 19 26 32 38 20 9 -9 12
-9 13 0 4 32 6 37 18 34 7 -1 10 2 7 7 -3 5 1 12 10 15 8 3 12 11 9 17 -5 7
-13 5 -24 -5 -10 -9 -23 -16 -30 -16 -7 0 -9 -4 -6 -10 4 -6 -1 -7 -11 -3 -12
5 -15 3 -9 -6 4 -7 -5 -5 -21 5 l-29 18 18 -21 c10 -12 14 -24 9 -27 -14 -9
-35 21 -28 40 4 9 1 24 -6 32 -10 12 -10 14 0 8 18 -11 15 2 -8 32 -15 18 -17
28 -9 33 6 4 9 11 5 17 -3 6 -2 13 3 16 5 3 11 -3 14 -14 3 -11 1 -20 -4 -20
-15 0 -10 -20 11 -47 11 -14 18 -29 15 -33 -3 -4 3 -14 12 -21 15 -12 16 -12
9 6 -12 31 -15 55 -8 54 24 -4 52 2 47 10 -3 6 -14 8 -24 6 -10 -2 -24 1 -32
6 -11 7 -10 9 6 10 11 1 26 1 33 0 6 -1 12 3 12 10 0 6 8 9 20 6 11 -3 20 -1
20 4 0 12 -20 11 -60 -2 -26 -9 -34 -9 -41 2 -5 8 -7 18 -6 24 2 5 -2 16 -10
23 -18 18 -16 31 5 39 9 3 34 21 55 40 36 32 72 43 79 23 2 -6 9 -6 18 0 12 7
7 11 -20 17 l-35 7 32 7 c43 9 114 4 122 -9 4 -6 12 -4 21 6 13 14 12 15 -3 9
-9 -3 -17 -2 -17 4 0 6 -4 8 -9 4 -5 -3 -13 0 -16 5 -4 7 -28 9 -63 6 l-57 -5
60 14 c70 16 107 19 87 6 -11 -7 -11 -9 2 -14 9 -4 16 -1 16 4 0 6 8 9 18 6
70 -23 156 -46 160 -43 2 3 -9 11 -26 20 -16 8 -32 12 -36 9 -3 -4 -6 -1 -6 5
0 26 42 8 108 -45 23 -19 40 -38 37 -43 -3 -4 13 -27 35 -50 l40 -42 0 96 c0
70 -3 96 -12 96 -9 0 -8 4 2 10 12 8 10 10 -11 10 -14 0 -52 16 -84 36 -33 19
-67 33 -77 31 -10 -3 -16 -1 -13 4 3 5 -15 14 -40 20 -26 7 -45 17 -45 25 0 8
-7 14 -15 14 -18 0 -20 -16 -2 -24 15 -7 -60 2 -130 15 -31 6 -54 16 -57 26
-5 12 -4 13 7 5 10 -9 17 -8 27 1 10 10 12 9 7 -6 -4 -11 -3 -16 4 -12 6 4 8
13 5 21 -4 10 3 14 22 14 16 0 33 5 40 12 9 9 12 9 12 -1 0 -7 5 -9 11 -5 8 5
8 9 -1 14 -6 4 -10 22 -8 41 2 24 9 35 23 38 11 2 24 9 28 17 11 19 27 18 27
-1 0 -24 16 -18 53 20 21 22 44 35 59 35 14 0 40 3 57 6 28 6 31 10 31 45 0
39 0 39 40 39 22 0 40 5 40 11 0 6 -9 8 -20 4 -16 -5 -20 -2 -20 18 0 17 7 26
22 30 39 10 11 20 -52 18 -36 -1 -60 3 -60 9 0 5 20 10 45 10 43 0 45 1 45 30
0 30 23 43 33 18 3 -7 6 641 6 1440 l1 1452 -2500 0 -2500 0 0 -2065z m2341
1988 c13 -16 12 -17 -3 -4 -10 7 -18 15 -18 17 0 8 8 3 21 -13z m-381 -87 c0
5 -6 16 -12 24 -11 12 -10 12 5 0 10 -7 16 -19 13 -27 -3 -8 2 -26 11 -41 21
-34 5 -19 -34 33 -43 58 -51 76 -15 35 17 -19 31 -30 32 -24z m821 -33 c13
-16 12 -17 -3 -4 -17 13 -22 21 -14 21 2 0 10 -8 17 -17z m-487 -9 c3 -8 2
-12 -4 -9 -6 3 -10 10 -10 16 0 14 7 11 14 -7z m294 -29 c-3 -3 -9 2 -12 12
-6 14 -5 15 5 6 7 -7 10 -15 7 -18z m183 -17 c15 -28 5 -21 -21 15 -15 20 -17
27 -6 18 9 -8 22 -23 27 -33z m-577 16 c3 -8 2 -12 -4 -9 -6 3 -10 10 -10 16
0 14 7 11 14 -7z m345 -48 c-3 -3 -11 5 -18 17 -13 21 -12 21 5 5 10 -10 16
-20 13 -22z m-318 7 c13 -16 12 -17 -3 -4 -10 7 -18 15 -18 17 0 8 8 3 21 -13z
m362 -23 c3 -11 1 -18 -4 -14 -5 3 -9 0 -9 -6 0 -6 -5 -8 -11 -4 -8 5 -7 9 1
14 7 4 10 15 7 25 -4 9 -3 14 2 11 5 -3 11 -15 14 -26z m-149 4 c3 -8 2 -12
-4 -9 -6 3 -10 10 -10 16 0 14 7 11 14 -7z m517 -11 c13 -16 12 -17 -3 -4 -17
13 -22 21 -14 21 2 0 10 -8 17 -17z m-6 -33 c3 -5 1 -10 -4 -10 -6 0 -11 5
-11 10 0 6 2 10 4 10 3 0 8 -4 11 -10z m-657 -25 c-3 -3 -9 2 -12 12 -6 14 -5
15 5 6 7 -7 10 -15 7 -18z m116 9 c3 -8 2 -12 -4 -9 -6 3 -10 10 -10 16 0 14
7 11 14 -7z m56 -37 c0 -12 0 -11 -24 28 l-17 30 20 -24 c12 -13 21 -28 21
-34z m170 18 c0 -8 -2 -15 -4 -15 -2 0 -6 7 -10 15 -3 8 -1 15 4 15 6 0 10 -7
10 -15z m481 -2 c13 -16 12 -17 -3 -4 -17 13 -22 21 -14 21 2 0 10 -8 17 -17z
m140 -21 c-7 -2 -18 1 -23 6 -8 8 -4 9 13 5 13 -4 18 -8 10 -11z m-136 -22
c10 -11 16 -20 13 -20 -3 0 -13 9 -23 20 -10 11 -16 20 -13 20 3 0 13 -9 23
-20z m59 -9 c-2 -3 -12 3 -22 13 -16 17 -16 18 5 5 12 -7 20 -15 17 -18z
m-1161 -6 c-3 -10 2 -15 16 -15 12 0 21 -4 21 -10 0 -5 6 -10 14 -10 8 0 23
-15 35 -32 11 -18 29 -40 40 -48 12 -8 21 -19 21 -24 0 -5 9 -17 21 -27 11
-10 18 -22 15 -27 -3 -6 1 -15 9 -22 8 -7 15 -9 15 -4 0 4 7 -1 15 -12 8 -10
15 -14 15 -8 0 14 -25 36 -33 28 -3 -3 -4 1 -3 10 2 17 14 22 19 9 1 -4 14
-21 30 -37 15 -17 27 -36 27 -42 0 -6 7 -17 16 -25 8 -7 22 -26 31 -43 9 -17
12 -28 8 -24 -6 6 -39 -12 -145 -81 -14 -9 -21 -11 -17 -3 5 6 4 12 -2 12 -6
0 -11 -6 -11 -13 0 -15 -50 -86 -50 -71 -1 5 -9 -7 -20 -26 -11 -19 -19 -28
-20 -20 0 27 -31 -28 -33 -60 -2 -27 -3 -28 -15 -13 -10 14 -14 15 -25 3 -7
-8 -8 -10 -1 -7 7 4 14 0 17 -8 4 -9 1 -12 -8 -9 -22 9 -37 -30 -23 -60 6 -14
15 -26 20 -26 5 0 6 6 2 13 -6 10 -4 10 7 0 7 -7 17 -13 22 -13 4 0 5 6 1 13
-5 8 -2 8 9 -2 18 -15 23 -41 7 -41 -5 0 -7 7 -3 15 5 13 2 14 -21 4 -15 -7
-23 -15 -18 -18 5 -3 12 -16 16 -28 4 -12 15 -25 25 -28 15 -4 18 -18 19 -92
2 -80 4 -89 29 -115 15 -15 33 -28 40 -28 7 0 30 -10 51 -23 42 -26 67 -29 67
-8 0 18 57 39 62 24 2 -6 13 -9 24 -6 12 3 18 11 15 19 -3 8 -1 14 4 14 6 0
10 -9 10 -20 0 -21 4 -22 57 -24 17 -1 29 3 26 7 -3 5 3 15 13 23 11 9 14 13
7 10 -6 -4 -14 -2 -18 3 -3 6 14 8 47 5 43 -4 48 -2 29 6 -28 12 -27 13 16 28
26 9 31 8 26 -4 -5 -14 6 -18 40 -15 9 1 17 -4 17 -11 0 -13 46 -33 106 -46
38 -8 94 -49 94 -68 0 -8 8 -14 18 -14 13 0 10 -6 -13 -24 -25 -20 -28 -26
-16 -40 12 -14 11 -16 -8 -16 -11 0 -21 -4 -21 -10 0 -5 5 -10 12 -10 9 0 9
-3 1 -11 -13 -13 -33 -4 -33 17 0 8 -4 14 -10 14 -18 0 -11 -46 11 -68 17 -19
18 -23 5 -28 -24 -9 -20 -17 29 -54 35 -26 45 -40 45 -63 0 -23 3 -27 18 -23
15 5 19 1 19 -26 0 -37 7 -68 21 -95 5 -10 7 -24 5 -30 -3 -7 0 -13 6 -13 6 0
11 -8 11 -18 0 -10 10 -24 23 -31 25 -13 28 -18 70 -106 30 -64 31 -98 2 -118
-12 -10 -14 -16 -7 -21 7 -4 12 -2 12 4 0 6 5 8 10 5 14 -9 -11 -32 -44 -41
-14 -3 -26 -10 -26 -15 0 -5 12 -4 26 1 28 11 40 13 32 5 -9 -10 -143 -55
-163 -55 -14 0 -16 -3 -7 -9 8 -4 36 0 69 11 64 21 66 21 59 9 -3 -4 -26 -14
-50 -21 -51 -14 -69 -38 -28 -36 16 1 26 6 24 14 -1 6 2 12 8 12 26 0 4 -24
-59 -65 -38 -25 -72 -45 -76 -45 -4 0 -14 -7 -23 -17 -19 -19 -20 -19 73 27
39 19 72 38 73 43 2 4 8 4 13 1 5 -3 -4 -24 -21 -47 -20 -27 -26 -43 -19 -48
8 -5 8 -8 0 -13 -6 -4 -11 -2 -11 5 0 7 -8 5 -20 -6 -11 -10 -20 -15 -20 -11
0 4 -5 4 -10 1 -6 -4 -8 -11 -4 -16 4 -6 14 -3 25 7 26 23 24 11 -6 -36 -14
-22 -25 -45 -25 -52 1 -7 9 3 19 22 11 20 30 47 43 60 41 44 65 77 46 61 -12
-9 -18 -10 -18 -2 0 6 5 12 10 12 6 1 15 2 20 3 6 0 14 6 18 11 4 6 16 17 27
25 17 12 16 10 -2 -11 -13 -14 -23 -33 -23 -42 0 -9 -7 -17 -16 -17 -11 0 -15
-6 -12 -18 5 -17 -15 -46 -25 -36 -3 3 -8 1 -12 -5 -3 -6 -1 -11 5 -11 6 0 8
-5 5 -10 -4 -6 -12 -7 -18 -4 -7 4 -9 4 -5 -1 10 -11 -20 -65 -35 -62 -6 1
-11 -2 -10 -8 0 -5 -5 -16 -13 -23 -13 -12 -14 -9 -9 15 5 25 3 23 -15 -10
-29 -52 -38 -39 -11 15 21 41 21 42 1 19 -11 -13 -20 -29 -20 -36 0 -17 -27
-27 -34 -12 -3 7 -3 2 0 -10 3 -14 -2 -29 -15 -42 -11 -11 -24 -29 -31 -40
-12 -24 -40 -28 -40 -6 0 8 -4 15 -10 15 -5 0 -10 -6 -10 -14 0 -8 -13 -20
-30 -28 -16 -7 -30 -16 -30 -20 0 -5 -7 -8 -15 -8 -8 0 -15 -7 -15 -15 0 -11
-12 -15 -44 -15 -80 0 -107 11 -163 66 -53 52 -64 67 -40 59 7 -3 19 13 31 41
16 39 17 48 5 56 -10 7 -8 8 8 3 22 -6 83 18 83 33 0 4 23 17 50 30 28 13 50
30 50 37 0 8 5 15 10 15 6 0 10 4 10 10 0 5 -7 7 -15 4 -8 -4 -15 -1 -15 5 0
6 4 11 8 11 4 0 8 9 8 20 0 11 -6 20 -13 20 -14 0 -16 10 -7 34 3 8 12 12 21
9 12 -5 14 -3 7 8 -4 8 -7 22 -6 31 2 9 -6 22 -17 27 -17 10 -19 8 -16 -9 2
-11 7 -26 11 -33 4 -6 4 -9 -1 -5 -4 4 -14 3 -22 -3 -10 -9 -17 -8 -30 2 -16
12 -17 12 -5 -2 10 -13 9 -19 -3 -29 -8 -7 -16 -10 -16 -6 -1 3 -2 10 -3 15 0
5 -5 13 -10 18 -6 5 -6 2 -1 -6 6 -11 4 -13 -11 -8 -18 7 -18 6 -1 -7 11 -8
14 -17 8 -20 -5 -4 -12 -2 -15 3 -4 5 -19 8 -34 6 -15 -1 -33 2 -41 9 -12 9
-12 7 -2 -13 10 -19 15 -21 22 -10 6 9 9 10 9 2 0 -20 -15 -22 -38 -4 -15 11
-21 23 -16 34 3 9 10 14 15 11 5 -3 9 2 9 10 0 24 18 19 23 -6 4 -19 5 -18 6
6 1 21 5 27 17 22 10 -4 23 3 34 16 17 21 21 22 42 9 21 -13 22 -13 9 3 -8 9
-12 17 -10 19 41 24 73 36 80 32 5 -4 6 2 2 11 -5 14 -2 16 20 10 19 -4 29 -1
36 11 14 24 14 7 0 -20 -7 -12 -8 -19 -4 -15 4 4 14 0 22 -10 13 -15 13 -15 4
5 -11 22 -2 35 24 39 6 0 16 2 23 2 6 1 11 5 10 10 -5 12 37 49 50 44 7 -2 15
4 18 13 8 20 -23 56 -42 48 -8 -3 -14 1 -14 11 0 16 -29 12 -41 -6 -3 -5 -49
2 -102 15 -55 13 -102 20 -109 15 -9 -5 -7 -8 7 -8 17 0 16 -3 -8 -19 -20 -13
-25 -20 -15 -24 8 -3 9 -6 1 -6 -6 -1 -19 6 -28 15 -15 15 -15 14 -9 -11 6
-24 4 -27 -10 -22 -10 4 -29 7 -42 7 -15 0 -23 4 -19 10 4 6 9 9 13 7 4 -2 15
4 25 15 9 10 14 18 10 19 -5 0 8 7 27 14 35 13 34 14 -35 13 -73 -1 -100 -11
-144 -55 -25 -24 -56 -29 -81 -13 -8 5 -13 10 -10 11 3 0 18 2 34 4 39 5 82
49 94 96 6 25 6 37 0 33 -6 -4 -8 2 -6 12 2 11 -3 24 -11 30 -8 7 -12 18 -8
29 6 14 10 15 22 5 8 -7 15 -18 15 -26 0 -7 4 -15 10 -19 13 -8 50 17 50 35 0
8 14 21 31 29 43 19 79 61 79 93 0 14 -9 48 -20 74 -12 26 -19 53 -16 61 5 12
2 15 -26 17 -15 1 -21 -44 -7 -60 9 -11 8 -18 -2 -30 -11 -14 -11 -18 3 -28
19 -14 14 -56 -6 -56 -6 0 -4 -5 4 -11 12 -9 11 -10 -5 -4 -11 4 -29 8 -40 9
-11 2 -30 8 -42 14 -36 20 -121 15 -154 -9 -35 -24 -37 -42 -7 -63 12 -9 19
-19 15 -22 -4 -4 -2 -13 4 -21 9 -10 6 -13 -16 -13 -37 0 -105 21 -105 32 0 6
-5 8 -12 6 -14 -5 -51 29 -44 41 3 5 -3 16 -14 26 -13 12 -20 14 -20 6 0 -7
-11 1 -25 17 -29 35 -31 67 -9 137 15 46 27 190 27 325 1 66 -29 166 -51 175
-14 5 -15 7 -2 16 12 9 10 10 -7 6 -19 -4 -21 -2 -13 12 7 15 1 21 -35 38 -38
17 -45 18 -50 5 -3 -8 0 -21 6 -29 22 -26 3 -22 -30 8 -34 29 -47 36 -37 20 3
-5 -6 -8 -20 -8 -15 0 -30 -7 -35 -14 -7 -11 -12 -11 -27 -2 -23 14 -45 2 -36
-20 5 -13 2 -16 -10 -11 -9 3 -16 11 -16 17 0 6 -7 2 -15 -9 -12 -16 -14 -17
-15 -2 0 9 -3 25 -6 35 -4 13 -3 14 4 5 7 -11 10 -11 15 2 4 9 2 16 -3 16 -6
0 -10 12 -10 27 0 26 1 26 16 7 14 -18 15 -18 8 6 -4 14 -11 27 -15 28 -14 6
-10 52 5 58 10 4 12 18 8 50 -4 36 -1 48 14 58 16 12 16 16 4 31 -11 13 -11
18 -1 24 16 10 -3 61 -24 61 -12 0 -15 11 -14 53 1 28 -2 65 -6 81 -5 19 -4
31 4 36 7 4 14 23 16 43 4 40 21 77 35 77 6 0 10 11 10 24 0 13 7 29 15 36 11
9 12 15 5 20 -6 4 0 12 15 20 14 7 25 18 25 23 0 18 58 62 84 62 14 1 26 -2
26 -6 0 -4 10 -5 23 -2 18 4 19 3 7 -6 -12 -9 -11 -11 8 -11 14 0 21 4 17 11
-6 9 25 -2 87 -33 16 -7 28 -20 28 -29 0 -19 19 -29 58 -30 23 0 24 -2 8 -8
-15 -6 -16 -9 -5 -13 8 -3 20 0 26 8 10 10 5 16 -27 31 -22 10 -40 23 -40 30
0 6 -5 13 -12 15 -6 2 -12 13 -13 25 -1 20 -1 20 29 2 17 -10 41 -19 54 -19
23 0 23 0 -5 25 -22 19 -24 24 -10 25 9 0 17 5 17 11 0 5 4 8 10 4 5 -3 7 -12
3 -20z m-143 -13 c-7 -3 -19 3 -28 13 -16 15 -15 16 12 4 15 -7 23 -15 16 -17z
m1441 -8 c9 -11 2 -9 -18 6 -18 13 -33 25 -33 27 0 8 38 -17 51 -33z m-842
-24 c11 -24 11 -24 -3 -6 -9 11 -16 24 -16 30 0 12 5 7 19 -24z m652 13 c13
-16 12 -17 -3 -4 -10 7 -18 15 -18 17 0 8 8 3 21 -13z m550 -30 c13 -16 12
-17 -3 -4 -17 13 -22 21 -14 21 2 0 10 -8 17 -17z m-530 -10 c13 -16 12 -17
-3 -4 -17 13 -22 21 -14 21 2 0 10 -8 17 -17z m-926 -83 c3 -5 1 -10 -4 -10
-6 0 -11 5 -11 10 0 6 2 10 4 10 3 0 8 -4 11 -10z m160 -160 c10 -11 16 -20
13 -20 -3 0 -13 9 -23 20 -10 11 -16 20 -13 20 3 0 13 -9 23 -20z m-861 -112
c-6 -19 -7 -19 -16 -4 -5 9 -6 26 -2 38 6 19 7 19 16 4 5 -9 6 -26 2 -38z
m942 -65 c55 -63 56 -65 17 -34 -23 18 -44 40 -47 47 -3 8 -11 14 -17 14 -7 0
-5 -7 5 -19 17 -19 17 -20 -7 -35 -28 -19 -57 -12 -57 14 0 21 33 53 45 43 4
-5 5 2 2 15 -3 12 -4 22 -2 22 1 0 29 -30 61 -67z m-10 -35 c4 -7 3 -8 -4 -4
-8 4 -12 0 -12 -11 0 -15 -2 -16 -10 -3 -6 10 -10 11 -10 3 0 -7 -7 -13 -16
-13 -12 0 -11 5 7 20 28 23 35 24 45 8z m625 -65 c13 -16 12 -17 -3 -4 -17 13
-22 21 -14 21 2 0 10 -8 17 -17z m-961 -28 c0 -5 -5 -3 -10 5 -5 8 -10 20 -10
25 0 6 5 3 10 -5 5 -8 10 -19 10 -25z m-21 -19 c-3 -3 -11 5 -18 17 -13 21
-12 21 5 5 10 -10 16 -20 13 -22z m397 -7 c3 -5 1 -9 -4 -9 -16 0 -23 -31 -11
-46 6 -7 9 -19 7 -25 -2 -7 -12 4 -22 25 -9 20 -21 34 -26 31 -5 -3 -13 1 -17
10 -8 13 -11 13 -28 1 -19 -14 -19 -15 4 -9 16 4 22 2 17 -5 -3 -5 -1 -23 6
-39 6 -15 12 -37 14 -48 1 -17 0 -17 -17 4 -12 14 -17 31 -14 42 4 11 2 19 -5
19 -6 0 -9 -4 -6 -8 7 -12 -26 -11 -41 1 -7 5 -13 14 -13 19 0 5 7 2 16 -6 21
-22 25 -20 18 9 -5 20 -1 27 17 34 15 5 29 5 37 -1 8 -8 12 -6 12 4 0 11 7 14
25 10 14 -2 28 -8 31 -13z m18 -35 c3 -9 6 -25 6 -37 0 -27 -15 -11 -24 26 -7
29 8 38 18 11z m20 0 c3 -8 2 -12 -4 -9 -6 3 -10 10 -10 16 0 14 7 11 14 -7z
m-75 -28 c8 -13 11 -30 8 -38 -3 -7 -6 -3 -6 10 -1 12 -5 22 -10 22 -5 0 -11
7 -15 15 -9 24 9 17 23 -9z m-118 -29 c-10 -9 -11 -8 -5 6 3 10 9 15 12 12 3
-3 0 -11 -7 -18z m40 -14 c13 -16 12 -17 -3 -4 -10 7 -18 15 -18 17 0 8 8 3
21 -13z m-46 -23 c10 -11 16 -20 13 -20 -3 0 -13 9 -23 20 -10 11 -16 20 -13
20 3 0 13 -9 23 -20z m29 4 c5 -14 4 -15 -9 -4 -17 14 -19 20 -6 20 5 0 12 -7
15 -16z m2073 -36 c-3 -8 -6 -5 -6 6 -1 11 2 17 5 13 3 -3 4 -12 1 -19z
m-2132 -7 c3 -5 2 -12 -3 -15 -5 -3 -9 1 -9 9 0 17 3 19 12 6z m235 -22 c0 -5
-4 -9 -10 -9 -5 0 -10 7 -10 16 0 8 5 12 10 9 6 -3 10 -10 10 -16z m-195 -7
c-3 -3 -11 0 -18 7 -9 10 -8 11 6 5 10 -3 15 -9 12 -12z m85 -7 c0 -8 13 -30
30 -48 l30 -34 -35 -6 c-21 -4 -46 0 -65 9 -33 17 -40 34 -12 34 14 0 15 -2 2
-10 -12 -8 -10 -9 9 -7 14 2 27 10 29 18 3 11 1 11 -8 -1 -9 -12 -10 -9 -5 14
5 26 4 28 -9 17 -21 -17 -21 -7 0 13 19 20 34 20 34 1z m160 -85 c8 -15 8 -25
0 -38 -10 -15 -11 -15 -7 4 2 12 0 29 -5 38 -5 9 -7 16 -4 16 3 0 10 -9 16
-20z m-45 -49 c-3 -6 -11 -11 -17 -11 -6 0 -6 6 2 15 14 17 26 13 15 -4z
m1905 15 c0 -2 -8 -10 -17 -17 -16 -13 -17 -12 -4 4 13 16 21 21 21 13z
m-1810 -20 c0 -2 -7 -6 -15 -10 -8 -3 -15 -1 -15 4 0 6 7 10 15 10 8 0 15 -2
15 -4z m-292 -49 c2 -11 -2 -14 -17 -10 -12 3 -21 1 -21 -6 0 -6 -4 -11 -10
-11 -5 0 -10 7 -10 15 0 8 7 15 15 15 8 0 15 5 15 11 0 16 25 5 28 -14z m2062
-13 c0 -8 -19 -13 -24 -6 -3 5 1 9 9 9 8 0 15 -2 15 -3z m-1965 -24 c-3 -5
-13 -10 -21 -10 -8 0 -14 5 -14 10 0 6 9 10 21 10 11 0 17 -4 14 -10z m1970 0
c-3 -5 -12 -10 -18 -10 -7 0 -6 4 3 10 19 12 23 12 15 0z m-65 -10 c0 -5 -5
-10 -11 -10 -5 0 -7 5 -4 10 3 6 8 10 11 10 2 0 4 -4 4 -10z m-37 -70 c-3 -12
-8 -19 -11 -16 -5 6 5 36 12 36 2 0 2 -9 -1 -20z m-24 -2 c-2 -2 -24 -21 -49
-43 -24 -22 -36 -29 -25 -15 26 32 58 59 69 60 5 0 7 -1 5 -2z m-2604 -68 c3
-5 1 -10 -4 -10 -6 0 -11 5 -11 10 0 6 2 10 4 10 3 0 8 -4 11 -10z m135 -25
c0 -8 -4 -15 -10 -15 -5 0 -10 7 -10 15 0 8 5 15 10 15 6 0 10 -7 10 -15z
m2367 -55 c0 -22 -2 -40 -6 -40 -9 0 -12 60 -5 72 8 13 9 10 11 -32z m-1039
-65 c-3 -3 -9 2 -12 12 -6 14 -5 15 5 6 7 -7 10 -15 7 -18z m1171 -32 c-18
-21 -43 -42 -57 -47 -21 -7 -23 -13 -19 -43 3 -18 25 -74 47 -124 51 -109 50
-145 -5 -179 -35 -22 -46 -40 -22 -36 6 1 17 5 24 9 15 10 33 -23 33 -61 0
-34 -37 -75 -81 -91 -18 -6 -27 -6 -24 -1 4 6 1 10 -6 10 -8 0 -5 9 7 23 16
18 54 89 54 101 0 1 -7 3 -16 3 -8 0 -47 -30 -85 -67 -38 -36 -73 -63 -76 -60
-3 3 -4 0 0 -5 3 -6 3 -15 -1 -21 -9 -12 -63 -47 -67 -42 -17 20 -92 189 -82
185 10 -4 13 1 9 19 -2 13 -11 24 -18 24 -8 0 -14 4 -14 9 0 5 10 7 23 4 21
-5 21 -5 5 13 -17 17 -16 19 15 29 17 6 31 16 30 23 -2 6 4 9 12 6 20 -8 85
62 85 91 0 13 7 25 15 29 8 3 15 14 15 24 0 26 39 22 54 -7 7 -12 15 -18 19
-15 4 4 7 -6 7 -22 0 -17 -4 -34 -10 -40 -5 -5 -10 -24 -12 -42 -2 -23 -15
-46 -45 -78 -24 -24 -43 -48 -43 -52 0 -5 -18 -16 -41 -26 -48 -21 -60 -43
-34 -62 25 -19 32 -18 46 7 9 17 8 23 -2 30 -8 5 -9 9 -4 9 6 0 15 -4 21 -10
12 -12 107 78 100 96 -3 8 0 13 6 11 6 -1 15 14 19 33 7 32 28 56 68 80 12 7
13 12 4 18 -6 4 -15 21 -18 37 -7 34 -9 43 -18 65 -3 8 -8 27 -11 42 -4 19
-11 26 -21 22 -34 -13 -12 7 33 30 26 13 60 38 76 55 41 43 45 39 5 -6z m-106
12 c1 -5 -6 -11 -15 -13 -11 -2 -18 3 -18 13 0 17 30 18 33 0z m-123 -129 c0
-2 -7 -7 -16 -10 -8 -3 -12 -2 -9 4 6 10 25 14 25 6z m-53 -32 c-3 -3 -12 -4
-19 -1 -8 3 -5 6 6 6 11 1 17 -2 13 -5z m-2153 -52 c5 -39 17 -61 55 -96 17
-16 28 -34 24 -39 -3 -6 -1 -7 6 -3 6 4 27 2 46 -5 29 -11 34 -17 29 -34 -4
-11 -11 -23 -16 -26 -6 -4 -9 -26 -8 -50 2 -24 2 -57 1 -72 -1 -24 -3 -26 -21
-17 -11 6 -23 22 -26 35 -3 14 -10 25 -15 25 -5 0 -9 9 -9 19 0 10 -7 22 -16
25 -9 4 -14 13 -10 21 3 8 1 15 -4 15 -6 0 -10 9 -10 20 0 10 -7 23 -16 28
-20 11 -26 85 -7 77 15 -5 16 4 4 24 -5 8 -14 10 -21 6 -10 -6 -12 -2 -7 16 4
13 7 35 7 48 0 32 10 21 14 -17z m2088 29 c-10 -6 -3 -10 23 -15 20 -4 40 -5
43 -2 3 3 -4 6 -16 6 -11 0 -23 4 -26 9 -4 5 2 8 11 6 10 -2 27 -4 38 -4 11
-1 26 -5 34 -10 12 -8 12 -12 -2 -25 -8 -9 -20 -16 -25 -16 -6 0 -12 -5 -14
-12 -5 -14 -68 8 -68 24 0 6 8 4 18 -3 15 -13 16 -12 3 4 -8 10 -19 16 -25 14
-6 -3 -17 1 -23 9 -13 13 -4 22 27 23 12 1 12 -1 2 -8z m-192 -45 c-6 -6 -15
-4 -25 4 -8 7 -24 10 -34 7 -13 -3 -18 0 -15 8 4 9 14 9 44 1 25 -6 36 -14 30
-20z m-1470 20 c0 -3 -4 -8 -10 -11 -5 -3 -10 -1 -10 4 0 6 5 11 10 11 6 0 10
-2 10 -4z m-2110 -93 c0 -39 -8 -57 -25 -60 -6 -1 -9 15 -7 39 3 28 1 39 -7
34 -6 -4 -11 -23 -11 -42 0 -19 -4 -34 -10 -34 -11 0 -14 83 -3 93 3 4 19 7
35 7 26 0 28 -3 28 -37z m2110 17 c0 -5 -2 -10 -4 -10 -3 0 -8 5 -11 10 -3 6
-1 10 4 10 6 0 11 -4 11 -10z m-102 -113 c14 -15 14 -19 1 -32 -16 -15 -47
-24 -48 -12 -4 38 1 67 9 62 6 -3 10 2 11 12 0 14 2 15 6 3 3 -8 13 -23 21
-33z m-298 -33 c0 -8 -4 -12 -10 -9 -5 3 -10 10 -10 16 0 5 5 9 10 9 6 0 10
-7 10 -16z m1190 6 c0 -5 -4 -10 -10 -10 -5 0 -10 5 -10 10 0 6 5 10 10 10 6
0 10 -4 10 -10z m840 -10 c0 -5 -2 -10 -4 -10 -3 0 -8 5 -11 10 -3 6 -1 10 4
10 6 0 11 -4 11 -10z m-1639 -87 c12 -16 12 -17 -2 -6 -9 7 -20 9 -24 5 -5 -4
-5 -1 -1 6 9 16 11 15 27 -5z m1749 2 c0 -8 -4 -15 -9 -15 -5 0 -11 7 -15 15
-3 9 0 15 9 15 8 0 15 -7 15 -15z m-1620 -47 c0 -9 3 -8 10 2 5 8 12 11 17 7
4 -5 1 -12 -7 -17 -21 -13 -27 -12 -34 5 -3 8 -1 15 4 15 6 0 10 -6 10 -12z
m-35 -18 c3 -5 2 -10 -4 -10 -5 0 -13 5 -16 10 -3 6 -2 10 4 10 5 0 13 -4 16
-10z m-45 -9 c0 -5 -7 -12 -16 -15 -14 -5 -15 -4 -4 9 14 17 20 19 20 6z m790
6 c0 -2 -10 -12 -22 -23 l-23 -19 19 23 c18 21 26 27 26 19z m1045 -17 c3 -5
1 -10 -4 -10 -6 0 -11 5 -11 10 0 6 2 10 4 10 3 0 8 -4 11 -10z m-3106 -94
c-3 -3 -11 5 -18 17 -13 21 -12 21 5 5 10 -10 16 -20 13 -22z m2991 -7 c-12
-16 -24 -28 -27 -25 -6 6 29 55 40 56 5 0 -1 -14 -13 -31z m-1075 -35 c-16
-13 -31 -21 -34 -19 -8 9 42 55 52 48 6 -3 -2 -16 -18 -29z m1128 11 c-7 -21
-12 -19 -10 4 0 11 5 18 9 15 4 -3 5 -11 1 -19z m-2033 2 c20 -16 55 -85 47
-93 -3 -4 -17 7 -31 22 -23 26 -28 39 -25 60 0 4 -5 11 -13 15 -7 5 -8 9 -3 9
6 -1 17 -6 25 -13z m223 -17 c-3 -11 -7 -20 -8 -20 -1 0 -5 9 -8 20 -3 12 0
20 8 20 8 0 11 -8 8 -20z m747 10 c0 -5 -5 -10 -11 -10 -5 0 -7 5 -4 10 3 6 8
10 11 10 2 0 4 -4 4 -10z m390 -11 c0 -6 -4 -7 -10 -4 -5 3 -10 11 -10 16 0 6
5 7 10 4 6 -3 10 -11 10 -16z m-1382 -44 c-3 -3 -9 2 -12 12 -6 14 -5 15 5 6
7 -7 10 -15 7 -18z m956 0 c-9 -14 -18 -25 -20 -25 -2 0 2 11 8 25 6 14 15 25
20 25 5 0 1 -11 -8 -25z m-797 -7 c-3 -8 -6 -5 -6 6 -1 11 2 17 5 13 3 -3 4
-12 1 -19z m1843 13 c0 -19 -12 -41 -23 -41 -17 0 -67 -52 -67 -69 0 -14 -1
-14 -10 -1 -9 14 -14 7 -11 -13 1 -5 -3 -6 -8 -3 -5 4 -16 -2 -23 -13 -10 -14
-18 -17 -28 -10 -12 7 -12 9 -1 9 11 0 11 3 1 15 -11 13 -10 14 3 9 10 -3 20
2 27 16 6 12 18 19 25 16 16 -6 39 19 31 32 -9 15 45 58 77 61 4 1 7 -3 7 -8z
m-1962 -57 c-4 -3 -12 5 -18 18 -12 22 -12 22 6 6 10 -10 15 -20 12 -24z
m1872 -4 c0 -5 -4 -10 -10 -10 -5 0 -10 5 -10 10 0 6 5 10 10 10 6 0 10 -4 10
-10z m55 -17 c-49 -61 -54 -65 -29 -25 15 23 31 42 35 42 5 0 2 -8 -6 -17z
m-1595 -14 c0 -5 -5 -9 -11 -9 -6 0 -17 -7 -25 -15 -18 -18 -38 -20 -28 -3 4
6 3 8 -3 5 -6 -4 -16 0 -23 8 -7 8 -17 12 -23 8 -5 -3 -8 -2 -4 3 7 12 117 14
117 3z m-1259 -22 c-17 -21 0 -29 21 -10 10 9 21 13 25 10 3 -4 1 -7 -5 -7 -7
0 -12 -6 -12 -13 0 -7 -11 -14 -25 -15 -18 -1 -25 3 -25 16 0 21 8 32 23 32 5
0 4 -6 -2 -13z m1136 -19 c-3 -8 -6 -5 -6 6 -1 11 2 17 5 13 3 -3 4 -12 1 -19z
m-1207 8 c0 -2 -20 -16 -44 -31 -41 -26 -66 -59 -66 -89 0 -16 -61 -62 -77
-58 -7 2 -13 -3 -13 -9 0 -7 -3 -10 -6 -7 -16 17 67 112 147 167 40 28 59 37
59 27z m1238 -25 c-7 -9 -13 -17 -14 -19 -1 -2 -1 8 0 21 0 15 6 23 14 20 10
-4 10 -9 0 -22z m-1219 12 c-4 -23 4 -29 37 -30 41 -1 52 -9 36 -25 -9 -9 -12
-9 -12 0 0 7 -4 12 -10 12 -5 0 -7 -8 -3 -17 3 -10 3 -15 -1 -11 -10 8 -66
-10 -88 -30 -12 -10 -18 -11 -18 -3 0 6 11 17 25 23 14 6 25 15 25 20 0 4 5 7
11 6 6 -2 13 2 16 8 5 15 -35 13 -45 -2 -4 -6 -17 -16 -28 -22 -15 -8 -20 -19
-19 -36 2 -18 -5 -30 -23 -42 -37 -24 -122 -111 -122 -124 0 -7 5 -8 13 -3 6
4 17 8 22 8 6 0 9 7 9 15 -1 8 19 33 44 55 25 22 43 36 40 30 -14 -28 -22 -53
-23 -83 -3 -41 -4 -42 -48 -46 -52 -5 -71 11 -57 49 14 37 80 106 93 98 6 -3
7 -1 3 5 -13 21 33 97 76 125 46 29 49 31 47 20z m1273 -25 c-6 -6 -15 -8 -19
-4 -4 4 -1 11 7 16 19 12 27 3 12 -12z m1468 2 c-6 -11 -13 -20 -16 -20 -2 0
0 9 6 20 6 11 13 20 16 20 2 0 0 -9 -6 -20z m-2605 -20 c4 -6 -1 -7 -11 -3
-13 5 -15 3 -9 -7 5 -9 4 -11 -4 -6 -6 4 -9 12 -6 17 8 12 22 12 30 -1z m2410
-55 c7 -19 9 -32 4 -30 -10 7 -39 65 -39 79 0 19 23 -12 35 -49z m218 40 c-3
-9 -8 -14 -10 -11 -3 3 -2 9 2 15 9 16 15 13 8 -4z m-1568 -25 c4 -6 1 -18 -6
-26 -12 -14 -14 -14 -26 2 -7 10 -13 21 -13 26 0 12 38 10 45 -2z m-1202 -35
c-41 -38 -56 -44 -47 -20 4 8 11 15 18 15 6 0 19 9 29 20 9 11 22 20 27 20 6
0 -6 -16 -27 -35z m151 20 c-17 -13 -17 -14 -2 -15 9 0 21 7 26 17 9 14 11 14
22 -6 11 -21 10 -22 -9 -16 -12 4 -21 2 -21 -4 0 -12 -33 -15 -43 -4 -8 8 22
43 36 43 6 0 2 -7 -9 -15z m-74 -24 c0 -12 -47 -61 -60 -61 -5 0 -10 7 -10 15
0 8 5 15 12 15 6 0 8 3 5 7 -4 3 3 12 16 19 27 15 37 16 37 5z m2521 -48 c-12
-20 -14 -14 -5 12 4 9 9 14 11 11 3 -2 0 -13 -6 -23z m-2467 2 c-4 -8 -7 -15
-9 -15 -2 0 -5 7 -9 15 -3 9 0 15 9 15 9 0 12 -6 9 -15z m-184 -63 c-6 -35 -6
-61 1 -78 5 -15 7 -29 5 -31 -8 -8 -26 8 -26 23 0 8 -5 14 -11 14 -7 0 -8 7
-4 18 8 19 17 61 18 80 0 6 4 12 8 12 5 0 6 8 2 18 -4 12 -3 14 6 6 8 -7 9
-24 1 -62z m151 53 c4 3 11 -7 15 -22 3 -15 8 -35 10 -43 3 -8 -4 -5 -16 8
-12 13 -34 28 -48 33 l-27 11 25 13 c14 8 26 9 28 4 2 -5 8 -7 13 -4z m127
-16 c2 -12 -7 -16 -43 -17 -33 -2 -45 2 -45 12 0 27 83 32 88 5z m2686 5 c3
-8 2 -12 -4 -9 -6 3 -10 10 -10 16 0 14 7 11 14 -7z m-2927 -61 c-16 -16 -17
-16 -17 3 0 26 11 37 24 24 7 -7 5 -16 -7 -27z m106 -3 c15 -16 27 -40 27 -51
0 -21 -1 -22 -20 -4 -11 10 -17 22 -14 26 3 5 1 9 -4 9 -5 0 -17 11 -26 25
-24 37 3 33 37 -5z m81 23 c4 -4 17 -8 28 -8 12 0 23 -6 26 -13 3 -9 -4 -11
-25 -7 -46 11 -53 14 -53 25 0 12 13 13 24 3z m-534 -24 c-7 -11 -14 -18 -17
-15 -3 3 0 12 7 21 18 21 23 19 10 -6z m386 -6 c0 -10 -5 -21 -11 -25 -5 -4
-6 -10 -2 -14 3 -4 13 -2 20 5 11 9 17 8 26 -3 9 -11 9 -15 -1 -19 -9 -4 -9
-6 2 -6 9 -1 26 -8 38 -17 21 -14 22 -18 8 -33 -8 -9 -15 -19 -15 -23 -1 -5
-3 -8 -6 -8 -3 0 -9 0 -13 0 -5 0 -15 11 -22 25 -7 13 -16 22 -20 20 -9 -6
-23 25 -15 33 3 3 5 1 5 -4 0 -5 9 -10 20 -10 12 0 16 4 11 9 -5 5 -7 16 -4
24 5 13 1 12 -21 -2 -19 -12 -25 -23 -21 -36 5 -14 2 -17 -8 -13 -21 8 -29 44
-10 44 8 0 11 5 8 10 -4 6 -11 8 -16 5 -14 -9 -11 3 7 30 19 29 42 33 40 8z
m124 -22 c7 -15 7 -22 -2 -27 -7 -4 -10 -4 -6 1 4 4 3 16 -3 26 -5 11 -7 19
-5 19 3 0 10 -9 16 -19z m70 -1 c11 -6 17 -17 14 -25 -9 -21 -19 -19 -38 10
-17 27 -8 32 24 15z m-615 -20 c-3 -5 -11 -10 -16 -10 -6 0 -7 5 -4 10 3 6 11
10 16 10 6 0 7 -4 4 -10z m4162 -12 c-3 -8 -6 -5 -6 6 -1 11 2 17 5 13 3 -3 4
-12 1 -19z m-3893 -2 c-3 -9 -12 -12 -22 -9 -15 6 -9 11 25 22 1 1 0 -5 -3
-13z m59 -28 c21 -47 29 -88 17 -88 -5 0 -10 12 -10 26 0 14 -4 23 -9 19 -22
-13 -54 49 -34 68 12 13 21 7 36 -25z m260 12 c3 -11 1 -18 -4 -14 -5 3 -9 12
-9 20 0 20 7 17 13 -6z m-613 7 c0 -2 -19 -21 -41 -42 -23 -22 -38 -33 -34
-25 19 34 75 84 75 67z m284 -44 c32 -34 42 -51 35 -59 -14 -17 -78 21 -90 54
-9 24 -6 52 6 52 3 0 25 -21 49 -47z m-174 -33 c0 -6 19 -1 42 11 38 19 41 20
28 4 -14 -17 -13 -18 2 -12 22 8 105 -41 111 -65 6 -19 -15 -42 -28 -30 -5 4
-5 1 -1 -5 13 -23 136 -70 136 -52 0 19 61 -22 71 -48 5 -14 8 -27 7 -28 -11
-11 -190 36 -226 58 -23 15 -45 27 -49 27 -11 0 -43 32 -43 44 0 6 4 5 9 -2
10 -17 54 -6 77 19 15 17 15 19 1 19 -9 0 -20 6 -24 14 -4 7 -19 17 -33 21
-25 8 -25 8 -6 -14 16 -17 17 -24 7 -34 -10 -9 -11 -9 -6 5 4 11 -1 20 -15 28
-20 11 -21 10 -15 -8 5 -18 2 -21 -24 -20 -17 1 -37 8 -44 17 -15 17 -29 86
-20 95 8 7 43 -29 43 -44z m466 -25 c3 -22 11 -43 17 -47 16 -10 -20 -84 -55
-113 -15 -13 -28 -30 -28 -37 -1 -7 -7 1 -14 18 -8 17 -26 40 -40 52 -24 18
-26 23 -14 41 7 12 16 21 20 21 5 0 8 6 8 14 0 8 16 23 35 35 24 14 35 28 35
44 0 57 25 38 36 -28z m3561 59 c-3 -3 -12 -4 -19 -1 -8 3 -5 6 6 6 11 1 17
-2 13 -5z m-4091 -33 c-3 -4 -1 -24 5 -44 8 -29 15 -37 33 -37 23 0 61 -32 50
-42 -3 -4 5 -9 18 -13 74 -24 115 -95 66 -114 -13 -6 -17 -10 -10 -10 16 -1
16 -21 -1 -21 -12 0 -52 39 -52 52 0 3 -3 9 -7 13 -4 4 -3 18 2 31 6 15 5 26
-2 30 -7 5 -8 2 -4 -7 4 -8 -1 -3 -12 10 -13 16 -21 20 -26 12 -4 -6 -14 -11
-22 -11 -9 0 -12 5 -8 11 4 7 1 10 -7 7 -8 -3 -13 -11 -11 -18 2 -7 -3 -10
-12 -7 -8 3 -20 -1 -26 -9 -7 -8 -9 -14 -5 -14 4 0 1 -8 -6 -17 -11 -13 -7
-12 16 3 17 12 45 26 62 32 29 9 32 9 30 -6 -5 -27 -47 -104 -55 -100 -4 3
-21 10 -38 17 -30 11 -51 38 -55 71 -5 30 22 130 33 124 7 -4 8 -2 4 4 -9 14
24 73 36 66 5 -3 6 -9 4 -13z m3372 -7 c23 14 102 -35 102 -64 0 -6 14 -19 31
-29 31 -19 31 -19 8 -23 -27 -4 -24 -5 -99 57 -30 25 -61 50 -67 56 -7 5 -13
15 -13 21 0 7 6 4 13 -7 8 -10 19 -15 25 -11z m-2788 -4 c0 -11 -4 -20 -9 -20
-5 0 -7 9 -4 20 3 11 7 20 9 20 2 0 4 -9 4 -20z m-220 -62 c0 -40 -5 -44 -30
-28 -12 7 -12 12 -2 22 6 6 12 26 12 43 0 23 3 26 10 15 5 -8 10 -32 10 -52z
m40 52 c0 -5 -4 -10 -10 -10 -5 0 -10 5 -10 10 0 6 5 10 10 10 6 0 10 -4 10
-10z m2890 0 c0 -5 -2 -10 -4 -10 -3 0 -8 5 -11 10 -3 6 -1 10 4 10 6 0 11 -4
11 -10z m36 -8 c1 -7 2 -19 3 -28 0 -8 6 -12 11 -9 6 4 7 12 3 18 -4 7 0 7 10
-1 9 -8 20 -11 26 -8 5 3 8 -2 6 -11 -3 -18 51 -83 69 -83 5 0 -8 16 -30 35
-21 19 -33 34 -26 35 15 0 102 -78 102 -92 0 -6 -7 -4 -17 3 -9 8 -23 13 -32
11 -9 -1 -28 9 -43 23 -30 27 -48 34 -28 10 18 -21 3 -19 -31 6 -16 11 -27 24
-24 29 3 4 -2 25 -11 45 -12 29 -12 36 -2 33 7 -3 14 -10 14 -16z m-3026 -22
c0 -5 -4 -10 -9 -10 -6 0 -13 5 -16 10 -3 6 1 10 9 10 9 0 16 -4 16 -10z
m2316 -25 c0 -25 -3 -31 -9 -20 -7 13 -2 55 7 55 1 0 2 -16 2 -35z m693 -14
c-2 -6 -10 2 -17 17 -11 25 -11 25 4 10 9 -9 15 -21 13 -27z m523 -41 c7 0 3
-7 -8 -15 -23 -17 -34 -19 -34 -4 0 5 5 7 10 4 6 -4 11 14 12 47 1 50 2 51 5
11 2 -24 9 -43 15 -43z m-3537 30 c17 -19 16 -19 -11 -14 -34 6 -38 9 -29 23
9 16 20 14 40 -9z m271 -48 l-27 -27 12 28 c7 15 16 27 21 27 5 0 6 6 2 13 -5
9 -4 9 7 -1 11 -10 9 -17 -15 -40z m84 44 c0 -3 -4 -8 -10 -11 -5 -3 -10 -1
-10 4 0 6 5 11 10 11 6 0 10 -2 10 -4z m1955 -75 c-9 -76 -30 -158 -54 -206
-10 -22 -17 -43 -14 -48 2 -4 -1 -6 -8 -5 -6 2 -14 -3 -17 -11 -3 -9 0 -11 8
-6 7 4 -1 -17 -18 -48 -17 -30 -28 -57 -26 -60 3 -3 1 -7 -3 -10 -5 -3 -9 7
-8 23 0 15 4 26 8 23 4 -2 5 6 2 20 -4 15 -1 30 8 38 7 8 12 20 9 28 -3 9 0
11 8 6 10 -6 12 -4 7 9 -4 9 -3 15 1 12 4 -2 16 28 26 67 10 40 29 105 42 145
13 40 21 78 18 84 -5 7 -2 8 5 3 9 -5 11 -23 6 -64z m745 12 c6 -7 8 -13 4
-13 -3 0 -1 -6 5 -13 8 -10 7 -14 -4 -14 -8 0 -21 18 -30 39 -19 48 -19 59 0
33 8 -11 19 -26 25 -32z m210 -3 c14 -16 34 -31 45 -34 11 -3 -19 -4 -67 -2
-55 2 -94 9 -105 17 -14 12 -15 12 -9 0 7 -10 3 -12 -15 -7 -20 6 -21 5 -6 -4
9 -6 21 -9 26 -5 5 3 13 0 16 -6 4 -5 13 -8 19 -6 7 3 19 1 27 -5 10 -7 -3 -8
-40 -4 -65 7 -85 21 -57 42 15 10 16 14 5 14 -8 0 -21 -6 -28 -12 -10 -11 -11
-10 -6 5 4 10 2 17 -4 17 -26 0 -8 15 19 16 16 1 27 -3 24 -7 -3 -5 0 -9 7 -9
7 0 21 -8 32 -17 13 -11 17 -12 12 -4 -6 11 -4 13 11 7 10 -4 24 -9 29 -10 6
-1 16 -5 22 -9 7 -5 20 -4 30 1 14 9 14 11 -5 21 -12 7 -22 9 -22 5 0 -3 -7
-1 -15 6 -8 7 -15 17 -15 22 0 17 45 -3 70 -32z m184 24 c5 -14 4 -15 -8 -5
-7 6 -22 9 -32 5 -16 -5 -16 -4 -4 5 21 15 37 13 44 -5z m31 6 c3 -6 -1 -7 -9
-4 -18 7 -21 14 -7 14 6 0 13 -4 16 -10z m-3178 -15 c0 -8 -4 -12 -9 -9 -5 3
-6 10 -3 15 9 13 12 11 12 -6z m3088 -5 c13 -5 14 -9 5 -9 -8 0 -24 4 -35 9
-13 5 -14 9 -5 9 8 0 24 -4 35 -9z m-3695 -10 c0 -5 -5 -10 -11 -10 -5 0 -7 5
-4 10 3 6 8 10 11 10 2 0 4 -4 4 -10z m3747 -6 c-3 -3 -12 -4 -19 -1 -8 3 -5
6 6 6 11 1 17 -2 13 -5z m-74 -21 c-7 -2 -19 -2 -25 0 -7 3 -2 5 12 5 14 0 19
-2 13 -5z m-3423 -55 c0 -10 -5 -18 -11 -18 -5 0 -7 -5 -4 -10 6 -10 -22 -27
-30 -19 -2 3 1 26 7 54 10 45 12 47 24 30 8 -10 14 -27 14 -37z m50 20 c11
-12 20 -27 20 -34 0 -6 8 -15 18 -19 16 -6 16 -8 -3 -22 -19 -15 -19 -15 4 -8
17 5 22 4 18 -6 -2 -8 -10 -13 -16 -11 -7 1 -10 -1 -7 -6 3 -5 -5 -14 -18 -20
-30 -13 -49 15 -41 61 4 18 2 45 -4 60 -13 33 0 35 29 5z m-160 -60 c0 -5 5
-6 10 -3 14 9 12 -1 -5 -35 -18 -36 -24 -37 -54 -9 -14 13 -20 27 -16 40 4 10
1 27 -5 36 -11 17 -11 17 -6 0 4 -11 2 -16 -5 -12 -14 9 -6 30 12 30 8 1 13 7
11 15 -2 8 10 0 27 -19 17 -19 31 -39 31 -43z m255 53 c17 -1 18 -3 5 -11 -12
-7 -8 -10 15 -11 l30 -1 -35 -12 c-38 -14 -80 -9 -44 5 18 7 18 8 -2 8 -12 1
-27 8 -34 15 -10 13 -7 14 17 12 15 -2 37 -4 48 -5z m3652 -7 c-3 -3 -12 -4
-19 -1 -8 3 -5 6 6 6 11 1 17 -2 13 -5z m-4344 -64 c-3 -11 -10 -23 -16 -27
-5 -3 -8 -2 -5 3 3 5 8 17 11 27 9 24 16 22 10 -3z m747 5 c-11 -13 -10 -14 5
-9 12 5 16 4 11 -4 -3 -6 -2 -13 4 -17 19 -12 10 -24 -15 -21 -28 3 -59 26
-35 26 7 0 10 3 7 7 -8 8 11 33 25 33 6 0 5 -7 -2 -15z m75 5 c-3 -5 -12 -10
-18 -10 -7 0 -6 4 3 10 19 12 23 12 15 0z m-303 -22 c23 4 50 -47 37 -71 -6
-9 -6 -17 -2 -17 5 0 10 -11 11 -25 1 -13 3 -29 4 -36 4 -14 -39 -22 -47 -9
-3 6 -21 10 -39 10 -57 0 -70 34 -40 106 18 43 32 56 49 46 5 -4 18 -5 27 -4z
m2289 -29 c-5 -13 -10 -19 -10 -12 -1 15 10 45 15 40 3 -2 0 -15 -5 -28z
m-2686 12 c3 -5 1 -12 -4 -15 -5 -3 -23 -34 -41 -68 -18 -35 -37 -69 -43 -77
-6 -7 -12 -19 -13 -26 -4 -25 -39 -64 -72 -80 -18 -9 -30 -20 -27 -25 7 -11
-53 -47 -85 -52 -15 -2 -39 -20 -58 -45 -19 -23 -45 -49 -58 -58 -26 -17 -31
-14 -11 7 7 7 32 41 55 76 44 63 65 79 54 40 -3 -14 -2 -19 6 -14 7 4 12 13
12 21 0 7 9 16 19 20 11 3 25 13 33 22 12 15 11 15 -12 1 -21 -14 -27 -14 -37
-3 -10 10 -9 14 3 19 8 3 14 9 13 13 -3 19 3 33 31 68 16 20 27 41 24 46 -3 5
-1 9 4 9 5 0 15 11 22 25 7 14 17 25 22 25 5 0 6 -6 2 -12 -4 -7 3 -4 15 7 13
11 25 19 28 17 3 -2 8 0 11 4 4 4 1 4 -5 0 -7 -4 -13 -3 -13 2 0 6 12 13 27
17 14 3 38 15 51 26 27 21 38 23 47 10z m4205 -1 c11 -8 7 -9 -15 -4 -37 8
-45 14 -19 14 10 0 26 -5 34 -10z m-3621 -19 c23 -17 22 -49 -1 -35 -6 4 -8 2
-4 -4 10 -16 -84 -65 -100 -51 -14 12 -15 48 -1 67 10 13 41 17 33 4 -3 -5 1
-9 9 -9 11 0 12 4 4 13 -7 9 -5 15 8 23 24 14 24 14 52 -8z m96 -11 c-3 -5
-12 -10 -18 -10 -7 0 -6 4 3 10 19 12 23 12 15 0z m1992 -32 c-3 -8 -6 -5 -6
6 -1 11 2 17 5 13 3 -3 4 -12 1 -19z m-2009 -27 c4 -23 -13 -51 -30 -51 -6 0
-5 7 2 15 8 9 8 15 2 15 -6 0 -13 -8 -17 -19 -3 -11 -21 -23 -45 -29 -33 -8
-43 -7 -58 7 -10 9 -16 15 -13 14 2 -2 11 3 19 10 13 10 14 9 8 -2 -6 -9 -1
-8 16 3 14 9 28 13 33 9 4 -5 5 -2 1 5 -4 7 -12 9 -18 6 -7 -5 -8 -2 -3 5 4 7
18 11 32 8 17 -3 28 1 36 14 15 24 31 19 35 -10z m3231 16 c-2 -1 -13 -10 -25
-20 -20 -16 -22 -16 -35 -1 -12 15 -12 16 8 10 12 -4 24 -2 28 4 3 5 11 10 17
10 6 0 9 -1 7 -3z m-89 -32 c0 -8 -4 -15 -10 -15 -5 0 -7 7 -4 15 4 8 8 15 10
15 2 0 4 -7 4 -15z m-62 -18 c8 -10 6 -13 -7 -13 -11 0 -17 6 -14 13 3 7 6 13
8 13 1 0 7 -6 13 -13z m-3008 -38 c-7 -25 -6 -30 5 -25 23 9 17 0 -12 -19 -16
-10 -23 -12 -16 -5 6 7 9 18 6 25 -4 12 12 55 22 55 2 0 0 -14 -5 -31z m37 11
c1 -11 -2 -20 -7 -20 -6 0 -7 17 -1 38 3 8 7 -1 8 -18z m-297 -4 c0 -2 -7 -7
-16 -10 -8 -3 -12 -2 -9 4 6 10 25 14 25 6z m3286 -51 c4 -8 11 -12 17 -8 6 3
7 1 3 -6 -6 -8 -12 -9 -20 -2 -7 6 -15 9 -18 6 -2 -3 -5 2 -5 10 0 19 16 19
23 0z m44 5 c0 -5 -2 -10 -4 -10 -3 0 -8 5 -11 10 -3 6 -1 10 4 10 6 0 11 -4
11 -10z m-3600 -4 c0 -2 -7 -6 -15 -10 -8 -3 -15 -1 -15 4 0 6 7 10 15 10 8 0
15 -2 15 -4z m540 -16 c0 -5 -5 -10 -11 -10 -5 0 -7 5 -4 10 3 6 8 10 11 10 2
0 4 -4 4 -10z m1929 -32 c-7 -12 -15 -61 -19 -108 l-7 -85 -2 82 c-1 61 3 89
16 112 20 34 31 34 12 -1z m1086 12 c3 -5 1 -10 -4 -10 -6 0 -11 5 -11 10 0 6
2 10 4 10 3 0 8 -4 11 -10z m46 -34 c14 8 11 -2 -4 -14 -10 -8 -13 -6 -14 11
0 12 1 16 4 9 3 -6 9 -10 14 -6z m-3546 -94 c-3 -3 -11 0 -18 7 -9 10 -8 11 6
5 10 -3 15 -9 12 -12z m3730 -142 c4 -6 10 -8 15 -5 5 3 21 -12 34 -34 14 -22
31 -43 38 -47 7 -4 5 2 -4 13 -28 31 -21 39 7 9 14 -15 25 -31 25 -37 0 -19
-29 -8 -54 21 -14 17 -28 29 -32 28 -4 -2 -12 6 -18 17 -6 11 -18 25 -26 32
-10 8 -11 12 -3 13 6 0 15 -5 18 -10z m-3749 -26 c1 -9 0 -13 -4 -10 -3 4 -7
14 -8 22 -1 9 0 13 4 10 3 -4 7 -14 8 -22z m-76 -67 c0 -6 7 -19 16 -28 14
-16 15 -25 5 -63 -6 -24 -8 -52 -4 -62 4 -12 3 -15 -5 -10 -7 4 -12 12 -12 17
0 19 -51 90 -60 84 -7 -4 -6 -13 0 -25 12 -22 13 -70 2 -87 -4 -7 -23 -16 -42
-19 -25 -6 -31 -4 -25 5 6 10 3 11 -13 2 -11 -6 -40 -12 -64 -12 l-43 -1 40
-9 c22 -5 46 -10 53 -11 6 -1 12 -5 12 -10 0 -5 4 -6 10 -3 5 3 17 2 27 -3 14
-9 14 -10 -5 -16 -12 -4 -22 -10 -22 -14 0 -12 -115 -5 -139 8 -17 9 -21 17
-16 33 4 12 9 40 12 62 9 77 71 89 132 25 21 -22 36 -42 33 -45 -3 -3 0 -5 6
-5 25 0 19 20 -18 61 -59 65 -54 129 11 129 15 0 37 9 50 19 22 18 26 18 42 4
9 -9 17 -21 17 -26z m-527 -19 c19 -23 27 -43 23 -53 -5 -15 -9 -14 -25 6 -11
13 -25 24 -33 25 -7 0 -21 2 -30 2 -10 1 -18 7 -18 13 0 5 5 7 12 3 7 -5 8 -3
3 6 -6 10 -12 7 -26 -11 -10 -13 -21 -20 -25 -16 -4 4 -2 7 4 7 7 0 12 5 12
11 0 5 -6 7 -12 4 -7 -4 0 5 16 20 36 33 61 29 99 -17z m876 -11 c-15 -12 -52
-42 -83 -67 -43 -34 -56 -51 -56 -72 0 -27 -22 -57 -43 -59 -58 -7 -85 -7 -97
1 -12 7 -10 13 9 34 13 14 32 28 43 32 10 3 18 12 18 21 0 9 -6 13 -15 9 -8
-3 -22 -9 -30 -12 -9 -4 -15 -1 -15 7 -1 9 -4 8 -11 -3 -5 -10 -18 -18 -27
-17 -9 0 -12 3 -7 5 6 2 9 20 7 38 -4 30 0 36 27 51 37 19 67 12 76 -16 4 -10
10 -19 15 -19 5 0 16 -8 25 -17 11 -11 21 -13 30 -7 7 5 43 32 81 61 70 53
101 71 53 30z m-598 -10 c-10 -9 -11 -8 -5 6 3 10 9 15 12 12 3 -3 0 -11 -7
-18z m4241 -15 c20 -20 4 -22 -22 -2 -19 14 -21 18 -7 16 9 -1 22 -7 29 -14z
m-4532 -26 c5 -7 16 -31 24 -53 13 -36 13 -44 0 -62 -15 -21 -72 -56 -80 -48
-2 2 5 12 16 22 21 19 27 55 10 55 -6 0 -8 11 -4 25 4 18 1 32 -11 45 -11 13
-14 20 -6 20 7 0 10 4 7 9 -9 13 32 1 44 -13z m120 -11 c5 -14 7 -32 3 -41 -4
-11 3 -23 18 -36 l24 -19 -35 5 c-31 5 -32 5 -11 -4 14 -6 31 -8 38 -6 7 3 22
-4 33 -16 l20 -22 -23 -25 c-29 -34 -41 -42 -45 -31 -2 5 -10 6 -18 3 -8 -3
-21 0 -29 7 -9 7 -19 9 -23 5 -4 -4 -1 -10 6 -12 7 -3 17 -14 23 -26 7 -12 8
-19 4 -15 -4 4 -38 -8 -76 -27 -70 -36 -124 -46 -117 -22 3 6 37 30 76 52 47
26 76 50 84 68 7 15 16 27 21 27 9 0 -18 54 -47 93 l-21 29 24 19 c32 26 60
24 71 -6z m2927 -27 c-2 -13 -4 -5 -4 17 -1 22 1 32 4 23 2 -10 2 -28 0 -40z
m1477 45 c4 -5 12 -8 18 -8 6 0 18 -11 26 -25 16 -25 16 -25 -4 -7 -11 9 -23
15 -26 12 -3 -3 -13 4 -23 15 -17 18 -8 30 9 13z m-4624 -58 c-7 -8 -17 -15
-22 -15 -6 0 -5 7 2 15 7 8 17 15 22 15 6 0 5 -7 -2 -15z m50 -15 c0 -5 -12
-10 -26 -10 -14 0 -23 4 -19 10 3 6 15 10 26 10 10 0 19 -4 19 -10z m585 -31
c-8 -12 -35 -12 -35 0 0 11 22 20 33 14 4 -2 5 -9 2 -14z m-477 -61 c-5 -11
-15 -15 -26 -12 -14 5 -14 4 -2 -5 8 -5 12 -12 10 -14 -41 -32 -74 -47 -107
-47 -32 0 -39 4 -39 19 0 15 11 22 45 31 30 8 57 24 81 49 32 35 35 36 41 17
3 -12 2 -29 -3 -38z m518 35 c-7 -7 -26 7 -26 19 0 6 6 6 15 -2 9 -7 13 -15
11 -17z m-76 -3 c0 -12 -28 -25 -36 -17 -9 9 6 27 22 27 8 0 14 -5 14 -10z
m27 -39 c2 -23 -23 -36 -31 -16 -3 8 3 19 12 24 9 6 17 11 17 11 1 0 1 -9 2
-19z m54 4 c-1 -15 -24 -12 -29 3 -3 9 2 13 12 10 10 -1 17 -7 17 -13z m58
-16 c23 -8 29 -15 22 -22 -17 -17 -13 -31 4 -17 13 10 19 10 35 -5 20 -18 27
-45 12 -45 -5 0 -15 -11 -22 -25 -23 -43 -110 -26 -110 21 0 21 -19 55 -21 39
-1 -5 -3 -19 -4 -31 -5 -44 -63 -104 -100 -104 -9 0 -24 13 -33 30 -9 16 -26
31 -37 32 -13 2 -21 12 -23 30 -2 20 5 32 30 51 18 13 42 26 54 29 18 5 20 1
19 -26 0 -17 -7 -42 -14 -54 -21 -38 -4 -37 21 2 13 19 32 37 43 38 12 2 19
10 17 18 -2 8 0 12 4 8 4 -4 13 -3 21 4 11 8 21 3 50 -26 34 -34 63 -47 63
-27 0 5 -7 14 -15 21 -8 7 -14 20 -13 29 2 10 -4 16 -16 16 -11 0 -21 6 -24
13 -5 15 -3 15 37 1z m2408 -41 c-3 -7 -5 -2 -5 12 0 14 2 19 5 13 2 -7 2 -19
0 -25z m-2736 -61 c-10 -9 -11 -8 -5 6 3 10 9 15 12 12 3 -3 0 -11 -7 -18z
m262 -20 c3 -7 -3 -13 -14 -14 -15 -1 -16 1 -6 12 15 18 14 18 20 2z m-347
-76 c0 -11 -5 -17 -13 -14 -10 4 -11 9 -2 19 15 18 15 18 15 -5z m821 -21 c-7
-17 -13 -26 -15 -21 -3 10 15 51 22 51 3 0 -1 -14 -7 -30z m-712 -90 c3 -5 1
-10 -4 -10 -6 0 -11 5 -11 10 0 6 2 10 4 10 3 0 8 -4 11 -10z m621 -142 c-14
-24 -26 -39 -26 -34 0 13 43 86 48 82 2 -3 -8 -24 -22 -48z m530 -110 l17 -33
-22 19 c-11 11 -21 25 -21 33 0 21 8 15 26 -19z m-16 -43 c0 -5 -5 -3 -10 5
-5 8 -10 20 -10 25 0 6 5 3 10 -5 5 -8 10 -19 10 -25z m28 -26 c-3 -8 -7 -3
-11 10 -4 17 -3 21 5 13 5 -5 8 -16 6 -23z m33 4 c13 -16 12 -17 -3 -4 -17 13
-22 21 -14 21 2 0 10 -8 17 -17z m-61 -3 c0 -5 -2 -10 -4 -10 -3 0 -8 5 -11
10 -3 6 -1 10 4 10 6 0 11 -4 11 -10z"/>
<path d="M1824 4519 c-4 -7 -3 -9 4 -5 5 3 13 0 15 -6 4 -9 6 -10 6 -1 1 17
-16 25 -25 12z"/>
<path d="M1970 4506 c0 -2 7 -6 15 -10 8 -3 15 -1 15 4 0 6 -7 10 -15 10 -8 0
-15 -2 -15 -4z"/>
<path d="M2015 4470 c-3 -5 -2 -10 4 -10 5 0 13 5 16 10 3 6 2 10 -4 10 -5 0
-13 -4 -16 -10z"/>
<path d="M2161 4374 c0 -11 3 -14 6 -6 3 7 2 16 -1 19 -3 4 -6 -2 -5 -13z"/>
<path d="M2080 4335 c0 -9 5 -15 11 -13 6 2 11 8 11 13 0 5 -5 11 -11 13 -6 2
-11 -4 -11 -13z"/>
<path d="M2167 4344 c-3 -3 -3 -12 0 -20 3 -8 2 -14 -3 -13 -21 4 -26 -2 -14
-16 17 -20 27 -19 40 5 8 16 8 24 -3 35 -8 8 -17 12 -20 9z"/>
<path d="M1540 4130 c0 -5 5 -10 11 -10 5 0 7 5 4 10 -3 6 -8 10 -11 10 -2 0
-4 -4 -4 -10z"/>
<path d="M2637 3475 c3 -8 9 -12 14 -9 12 7 11 11 -5 17 -10 4 -13 1 -9 -8z"/>
<path d="M2711 3454 c0 -11 3 -14 6 -6 3 7 2 16 -1 19 -3 4 -6 -2 -5 -13z"/>
<path d="M2400 3450 c0 -5 7 -10 16 -10 8 0 12 5 9 10 -3 6 -10 10 -16 10 -5
0 -9 -4 -9 -10z"/>
<path d="M2785 3410 c-3 -5 1 -10 9 -10 9 0 16 5 16 10 0 6 -4 10 -9 10 -6 0
-13 -4 -16 -10z"/>
<path d="M2872 3050 c0 -14 2 -19 5 -12 2 6 2 18 0 25 -3 6 -5 1 -5 -13z"/>
<path d="M2825 3020 c4 -6 11 -8 16 -5 14 9 11 15 -7 15 -8 0 -12 -5 -9 -10z"/>
<path d="M2938 2573 c7 -3 16 -2 19 1 4 3 -2 6 -13 5 -11 0 -14 -3 -6 -6z"/>
<path d="M2560 2562 c0 -6 6 -12 13 -15 9 -3 9 -7 -2 -20 -7 -10 -11 -17 -7
-17 3 0 1 -11 -4 -25 -5 -14 -7 -25 -4 -25 10 0 43 44 44 57 0 7 7 10 18 6 21
-8 17 -3 -25 26 -18 12 -33 18 -33 13z"/>
<path d="M2530 2526 c7 -7 13 -7 20 0 6 6 3 10 -10 10 -13 0 -16 -4 -10 -10z"/>
<path d="M2620 2500 c0 -5 5 -10 10 -10 6 0 10 5 10 10 0 6 -4 10 -10 10 -5 0
-10 -4 -10 -10z"/>
<path d="M2545 2420 c3 -5 8 -10 11 -10 2 0 4 5 4 10 0 6 -5 10 -11 10 -5 0
-7 -4 -4 -10z"/>
<path d="M2884 2383 c-15 -20 -23 -33 -16 -29 13 8 56 66 49 66 -3 0 -17 -17
-33 -37z"/>
<path d="M2381 4088 c0 -9 -7 -18 -13 -21 -10 -3 -10 -8 1 -18 12 -12 13 -12
6 0 -6 11 -4 13 8 8 9 -3 19 -2 22 3 4 6 2 10 -4 10 -5 0 -12 8 -14 18 -4 15
-5 15 -6 0z"/>
<path d="M2440 3911 c0 -5 5 -13 10 -16 6 -3 10 -2 10 4 0 5 -4 13 -10 16 -5
3 -10 2 -10 -4z"/>
<path d="M3951 2684 c0 -11 3 -14 6 -6 3 7 2 16 -1 19 -3 4 -6 -2 -5 -13z"/>
<path d="M3970 2655 c0 -5 5 -17 10 -25 5 -8 10 -10 10 -5 0 6 -5 17 -10 25
-5 8 -10 11 -10 5z"/>
<path d="M4000 2611 c0 -25 6 -27 13 -6 4 8 2 17 -3 20 -6 4 -10 -3 -10 -14z"/>
<path d="M2170 2750 c-8 -5 -10 -10 -5 -10 6 0 17 5 25 10 8 5 11 10 5 10 -5
0 -17 -5 -25 -10z"/>
<path d="M3921 2277 c-13 -21 -12 -21 5 -5 10 10 16 20 13 22 -3 3 -11 -5 -18
-17z"/>
<path d="M1180 1907 c0 -2 6 -10 14 -16 11 -9 16 -9 22 1 4 7 4 10 -1 6 -4 -4
-14 -3 -22 3 -7 6 -13 9 -13 6z"/>
<path d="M1022 1886 c7 -8 15 -12 17 -11 5 6 -10 25 -20 25 -5 0 -4 -6 3 -14z"/>
<path d="M666 1693 c-6 -14 -5 -15 5 -6 7 7 10 15 7 18 -3 3 -9 -2 -12 -12z"/>
<path d="M4083 1774 c-3 -8 -2 -19 3 -24 5 -5 9 1 9 16 0 28 -3 30 -12 8z"/>
<path d="M3230 1376 c-6 -9 -10 -21 -8 -28 3 -8 9 -4 17 10 15 28 9 39 -9 18z"/>
<path d="M474 1445 c-70 -66 -108 -88 -63 -37 l24 27 -26 -22 c-14 -13 -31
-23 -37 -23 -7 0 -12 -4 -12 -10 0 -5 7 -7 15 -4 28 11 6 -22 -35 -52 -43 -32
-60 -57 -32 -47 15 6 16 5 2 -13 -14 -19 -14 -19 7 0 12 10 21 22 20 26 -1 4
36 43 83 86 79 73 137 134 128 134 -3 0 -36 -29 -74 -65z"/>
<path d="M435 1363 c-43 -39 -44 -41 -9 -15 37 28 72 63 63 62 -2 -1 -26 -21
-54 -47z"/>
<path d="M359 1303 c-13 -16 -12 -17 4 -4 9 7 17 15 17 17 0 8 -8 3 -21 -13z"/>
<path d="M319 1203 c-13 -17 -13 -17 6 -3 11 8 22 16 24 17 2 2 0 3 -6 3 -6 0
-17 -8 -24 -17z"/>
<path d="M1073 1430 c-18 -11 -33 -22 -33 -25 0 -2 16 5 35 16 19 12 35 23 35
25 0 6 -3 5 -37 -16z"/>
<path d="M839 723 c-13 -16 -12 -17 4 -4 9 7 17 15 17 17 0 8 -8 3 -21 -13z"/>
<path d="M290 701 c0 -6 4 -13 10 -16 6 -3 7 1 4 9 -7 18 -14 21 -14 7z"/>
<path d="M3840 2910 c0 -5 5 -10 10 -10 6 0 10 5 10 10 0 6 -4 10 -10 10 -5 0
-10 -4 -10 -10z"/>
<path d="M3905 2890 c3 -5 8 -10 11 -10 2 0 4 5 4 10 0 6 -5 10 -11 10 -5 0
-7 -4 -4 -10z"/>
<path d="M3646 2874 c-5 -14 -4 -15 9 -4 17 14 19 20 6 20 -5 0 -12 -7 -15
-16z"/>
<path d="M3750 2847 c0 -3 12 -12 26 -22 15 -9 23 -12 20 -6 -7 11 -46 35 -46
28z"/>
<path d="M3848 2807 c8 -9 11 -20 8 -25 -3 -5 1 -9 9 -9 16 0 4 31 -18 43 -8
6 -8 3 1 -9z"/>
<path d="M3939 2618 c-6 -21 -5 -38 1 -38 5 0 8 9 7 20 -1 17 -5 26 -8 18z"/>
<path d="M3920 2560 c6 -11 13 -20 16 -20 2 0 0 9 -6 20 -6 11 -13 20 -16 20
-2 0 0 -9 6 -20z"/>
<path d="M3448 2555 c13 -25 60 -70 67 -64 2 3 -14 23 -36 45 -23 21 -37 30
-31 19z"/>
<path d="M3860 2558 c0 -4 5 -10 10 -13 6 -3 10 -1 10 5 0 6 5 8 10 5 6 -3 10
-2 10 4 0 5 -9 9 -20 8 -11 -1 -20 -5 -20 -9z"/>
<path d="M3590 2525 c0 -9 5 -15 11 -13 6 2 11 8 11 13 0 5 -5 11 -11 13 -6 2
-11 -4 -11 -13z"/>
<path d="M3656 2531 c-4 -7 -5 -15 -2 -18 9 -9 19 4 14 18 -4 11 -6 11 -12 0z"/>
<path d="M3736 2517 c3 -10 9 -15 12 -12 3 3 0 11 -7 18 -10 9 -11 8 -5 -6z"/>
<path d="M3800 2489 c0 -6 -9 -8 -22 -3 -21 6 -21 6 -4 -11 15 -15 19 -16 27
-4 10 16 12 29 4 29 -3 0 -5 -5 -5 -11z"/>
<path d="M3590 2430 c0 -5 -7 -7 -15 -4 -9 4 -15 0 -15 -10 0 -9 5 -16 10 -16
6 0 10 -6 10 -14 0 -7 9 -16 21 -19 21 -6 21 -34 0 -29 -14 3 -15 -15 -1 -23
5 -3 8 -23 6 -43 -2 -20 -2 -31 1 -24 2 6 9 10 14 6 5 -3 9 14 9 37 0 36 2 40
15 29 8 -7 13 -16 10 -19 -2 -4 2 -8 10 -8 10 0 11 5 4 18 -5 10 -14 21 -19
24 -6 4 -7 11 -4 17 4 6 2 8 -3 5 -6 -4 -19 3 -29 14 -17 19 -17 20 0 13 14
-5 17 -4 12 7 -3 8 -9 22 -12 32 -7 18 -24 24 -24 7z"/>
<path d="M3430 2306 c0 -3 9 -10 20 -16 11 -6 20 -8 20 -6 0 3 -9 10 -20 16
-11 6 -20 8 -20 6z"/>
<path d="M3460 2261 c0 -6 4 -13 10 -16 6 -3 7 1 4 9 -7 18 -14 21 -14 7z"/>
<path d="M3450 2231 c0 -6 4 -13 10 -16 6 -3 7 1 4 9 -7 18 -14 21 -14 7z"/>
<path d="M3560 2091 c0 -6 4 -13 10 -16 6 -3 7 1 4 9 -7 18 -14 21 -14 7z"/>
<path d="M3550 1964 c0 -15 42 -116 46 -111 2 2 -7 30 -21 63 -13 32 -24 54
-25 48z"/>
<path d="M3596 1945 c4 -8 8 -15 10 -15 2 0 4 7 4 15 0 8 -4 15 -10 15 -5 0
-7 -7 -4 -15z"/>
<path d="M4968 1883 c6 -2 18 -2 25 0 6 3 1 5 -13 5 -14 0 -19 -2 -12 -5z"/>
<path d="M4620 1681 c0 -5 -10 -12 -22 -14 -20 -4 -19 -4 5 -6 18 -1 27 4 27
14 0 8 -2 15 -5 15 -3 0 -5 -4 -5 -9z"/>
<path d="M4870 1631 c0 -6 4 -13 10 -16 6 -3 7 1 4 9 -7 18 -14 21 -14 7z"/>
<path d="M4942 1626 c7 -8 15 -12 17 -11 5 6 -10 25 -20 25 -5 0 -4 -6 3 -14z"/>
<path d="M4808 1623 c6 -2 18 -2 25 0 6 3 1 5 -13 5 -14 0 -19 -2 -12 -5z"/>
<path d="M4890 1603 l-35 -14 34 6 c34 5 49 12 40 18 -2 2 -20 -3 -39 -10z"/>
<path d="M3690 1577 c0 -2 15 -16 33 -33 l32 -29 -29 33 c-28 30 -36 37 -36
29z"/>
<path d="M4571 1455 c15 -9 18 -14 9 -17 -11 -3 -10 -6 2 -10 11 -5 15 -2 13
10 -1 9 2 20 7 23 5 3 -5 6 -23 6 -30 0 -30 -1 -8 -12z"/>
<path d="M3810 1456 c0 -2 8 -10 18 -17 15 -13 16 -12 3 4 -13 16 -21 21 -21
13z"/>
<path d="M4765 1450 c-3 -5 2 -11 12 -11 10 -1 30 -2 45 -3 16 -1 33 -7 40
-14 7 -7 23 -12 38 -12 l25 1 -30 24 c-30 25 -51 33 -41 16 6 -10 -57 -7 -73
3 -5 4 -12 2 -16 -4z m120 -20 c3 -6 -1 -7 -9 -4 -18 7 -21 14 -7 14 6 0 13
-4 16 -10z"/>
<path d="M4465 1419 c-4 -6 -4 -13 -1 -16 3 -4 6 0 6 7 0 9 5 7 16 -6 14 -18
15 -18 4 4 -12 25 -16 27 -25 11z"/>
<path d="M4657 1394 c2 -7 11 -10 19 -7 19 7 18 10 -5 16 -13 3 -18 1 -14 -9z"/>
<path d="M4630 1380 c-9 -6 -10 -10 -3 -10 6 0 15 5 18 10 8 12 4 12 -15 0z"/>
<path d="M4710 1380 c8 -5 20 -10 25 -10 6 0 3 5 -5 10 -8 5 -19 10 -25 10 -5
0 -3 -5 5 -10z"/>
<path d="M4450 1371 c0 -6 4 -13 10 -16 6 -3 7 1 4 9 -7 18 -14 21 -14 7z"/>
<path d="M4481 1353 c0 -12 -11 -29 -23 -39 -13 -9 -16 -14 -8 -12 92 30 123
42 113 45 -7 2 -21 0 -32 -6 -29 -16 -39 -13 -44 12 l-4 22 -2 -22z"/>
<path d="M4496 1251 c-3 -5 5 -8 18 -7 13 0 22 4 19 9 -6 10 -31 9 -37 -2z"/>
<path d="M4475 1229 c-31 -5 -22 -7 45 -9 47 -1 100 -1 118 0 17 1 32 -3 32
-9 0 -6 5 -11 10 -11 6 0 10 7 10 15 0 15 -12 17 -130 20 -25 1 -63 -2 -85 -6z"/>
<path d="M4700 1221 c0 -5 15 -12 33 -15 17 -3 57 -18 87 -32 30 -14 48 -19
40 -11 -13 13 -138 67 -154 67 -3 0 -6 -4 -6 -9z"/>
<path d="M4444 1195 c1 -5 12 -8 22 -7 32 6 35 17 4 17 -17 0 -28 -4 -26 -10z"/>
<path d="M4905 1140 c-3 -5 -1 -10 4 -10 6 0 11 5 11 10 0 6 -2 10 -4 10 -3 0
-8 -4 -11 -10z"/>
<path d="M4964 1116 c1 -9 7 -21 13 -27 9 -9 11 -7 9 5 -1 9 -7 21 -13 27 -9
9 -11 7 -9 -5z"/>
<path d="M4800 1046 c0 -2 8 -10 18 -17 15 -13 16 -12 3 4 -13 16 -21 21 -21
13z"/>
<path d="M4837 989 c4 -13 8 -18 11 -10 2 7 -1 18 -6 23 -8 8 -9 4 -5 -13z"/>
<path d="M4860 876 c0 -2 7 -7 16 -10 8 -3 12 -2 9 4 -6 10 -25 14 -25 6z"/>
<path d="M4770 836 c0 -2 7 -7 16 -10 8 -3 12 -2 9 4 -6 10 -25 14 -25 6z"/>
<path d="M4906 803 c3 -15 5 -43 6 -62 0 -18 3 -29 7 -24 3 6 13 13 21 16 12
4 11 6 -2 6 -10 1 -18 6 -18 12 0 5 6 7 13 3 9 -6 9 -5 0 7 -7 9 -14 25 -16
37 -2 12 -6 24 -9 28 -4 3 -4 -7 -2 -23z"/>
<path d="M4830 766 c0 -2 8 -10 18 -17 15 -13 16 -12 3 4 -13 16 -21 21 -21
13z"/>
<path d="M4924 631 c7 -14 12 -36 11 -48 -1 -13 10 -33 26 -49 16 -15 26 -32
22 -37 -3 -6 -1 -7 6 -3 15 10 5 44 -22 74 -11 12 -18 22 -14 22 3 0 0 12 -8
27 -8 15 -12 30 -10 33 2 4 -2 7 -10 7 -12 0 -12 -5 -1 -26z m36 -71 c0 -5 -2
-10 -4 -10 -3 0 -8 5 -11 10 -3 6 -1 10 4 10 6 0 11 -4 11 -10z"/>
<path d="M4985 630 c-3 -5 -1 -10 4 -10 6 0 11 5 11 10 0 6 -2 10 -4 10 -3 0
-8 -4 -11 -10z"/>
<path d="M4970 586 c0 -2 7 -9 15 -16 9 -7 15 -8 15 -2 0 5 -7 12 -15 16 -8 3
-15 4 -15 2z"/>
<path d="M4827 119 c7 -7 15 -10 18 -7 3 3 -2 9 -12 12 -14 6 -15 5 -6 -5z"/>
<path d="M675 103 c4 -10 9 -36 12 -58 5 -39 7 -41 42 -42 34 -2 38 1 59 44
28 57 22 65 -13 19 -15 -20 -33 -36 -41 -36 -7 0 -22 20 -33 45 -11 25 -23 45
-27 45 -3 0 -3 -8 1 -17z"/>
<path d="M118 3 c7 -3 16 -2 19 1 4 3 -2 6 -13 5 -11 0 -14 -3 -6 -6z"/>
</g>
</svg>
