<?xml version="1.0" standalone="no"?>
<!DOCTYPE svg PUBLIC "-//W3C//DTD SVG 20010904//EN"
 "http://www.w3.org/TR/2001/REC-SVG-20010904/DTD/svg10.dtd">
<svg version="1.0" xmlns="http://www.w3.org/2000/svg"
 width="350.000000pt" height="233.000000pt" viewBox="0 0 350.000000 233.000000"
 preserveAspectRatio="xMidYMid meet">

<g transform="translate(0.000000,233.000000) scale(0.100000,-0.100000)"
fill="#000000" stroke="none">
<path d="M0 1900 l0 -430 40 0 c33 0 40 3 40 20 0 13 7 20 20 20 11 0 20 5 20
10 0 6 18 10 40 10 l40 0 0 50 0 50 39 0 c22 0 43 5 46 10 3 6 40 10 81 10 67
0 74 2 74 20 0 13 7 20 20 20 11 0 20 5 20 10 0 6 28 10 65 10 66 0 96 10 126
43 10 10 31 17 53 17 20 0 36 5 36 10 0 6 33 10 80 10 73 0 80 2 80 20 0 13 7
20 20 20 11 0 20 5 20 10 0 6 9 10 20 10 16 0 20 7 20 30 0 28 2 30 40 30 22
0 40 5 40 10 0 6 9 10 20 10 13 0 20 7 20 20 0 17 7 20 40 20 33 0 40 3 40 20
0 17 7 20 40 20 22 0 40 5 40 10 0 6 18 10 40 10 22 0 40 5 40 10 0 6 17 10
39 10 30 0 40 4 44 20 4 16 14 20 51 20 30 0 46 4 46 13 1 6 10 1 20 -12 11
-13 20 -18 20 -13 0 6 -5 14 -10 17 -11 7 12 35 29 35 6 0 11 5 11 10 0 6 32
10 75 10 43 0 75 4 75 10 0 6 18 10 40 10 33 0 40 3 40 20 0 17 7 20 40 20 22
0 40 -4 40 -10 0 -5 18 -10 40 -10 38 0 40 2 40 30 0 28 2 30 40 30 33 0 40 3
40 20 0 17 7 20 40 20 33 0 40 3 40 20 0 20 -7 20 -1080 20 l-1080 0 0 -430z
m960 -30 c0 -13 -7 -20 -20 -20 -13 0 -20 7 -20 20 0 13 7 20 20 20 13 0 20
-7 20 -20z"/>
<path d="M2360 2315 c0 -8 5 -15 10 -15 6 0 10 7 10 15 0 8 -4 15 -10 15 -5 0
-10 -7 -10 -15z"/>
<path d="M3440 2310 c0 -16 7 -20 30 -20 23 0 30 4 30 20 0 16 -7 20 -30 20
-23 0 -30 -4 -30 -20z"/>
<path d="M2678 1297 c-26 -7 -56 -19 -65 -27 -10 -8 -31 -19 -47 -25 -16 -5
-37 -22 -45 -36 -9 -14 -31 -48 -48 -75 -18 -27 -40 -68 -49 -92 -10 -24 -22
-41 -28 -39 -48 18 -59 19 -53 4 9 -23 -4 -29 -24 -11 -12 11 -19 12 -24 4 -8
-13 -9 -13 30 -26 26 -8 30 -15 33 -52 4 -55 -18 -56 -56 -3 -15 22 -35 42
-45 44 -9 3 -15 1 -12 -4 3 -4 -7 -15 -22 -23 -15 -7 -41 -26 -56 -40 -15 -14
-34 -26 -41 -26 -6 0 -17 -5 -24 -12 -6 -6 -23 -12 -37 -14 -14 -1 -44 -18
-67 -37 -24 -19 -54 -37 -68 -40 -14 -3 -35 -8 -48 -11 -39 -9 -14 12 64 55
41 22 74 42 74 42 0 1 -14 3 -30 4 -17 1 -28 -2 -25 -7 5 -7 -28 -33 -45 -35
-3 0 -23 -12 -45 -26 -22 -15 -44 -26 -49 -27 -5 0 -14 -11 -20 -23 -6 -13
-35 -36 -65 -51 -61 -32 -84 -26 -75 20 8 37 -11 80 -40 93 -13 7 -27 22 -30
34 -7 29 -64 50 -111 41 -40 -8 -79 -45 -80 -78 -1 -12 -2 -42 -3 -66 -2 -36
-7 -45 -34 -62 -18 -10 -39 -25 -47 -32 -8 -7 -24 -14 -35 -15 -11 -2 -27 -10
-36 -18 -9 -8 -26 -15 -37 -15 -17 0 -93 -74 -93 -91 0 -3 -27 -9 -60 -12 -33
-4 -74 -14 -91 -22 -16 -9 -34 -13 -38 -10 -5 3 -18 -11 -30 -30 -21 -36 -41
-46 -41 -20 0 20 -16 19 -24 -1 -10 -27 1 -31 61 -22 32 5 130 8 218 6 141 -3
165 -6 203 -25 36 -18 56 -21 130 -19 180 6 269 25 244 51 -8 9 33 2 62 -10
14 -6 17 -5 12 3 -5 8 4 12 29 12 24 0 34 -4 29 -11 -4 -7 0 -9 13 -5 11 4 37
-1 59 -10 21 -9 64 -18 94 -20 30 -2 66 -5 80 -7 14 -2 31 -5 38 -5 6 -1 12
-8 12 -16 0 -8 14 -17 31 -21 19 -4 33 -15 36 -26 4 -14 14 -19 39 -19 19 0
60 -9 92 -19 40 -14 99 -21 197 -26 77 -3 163 -11 191 -16 55 -12 108 -7 67 6
-59 19 13 69 85 60 20 -2 68 -7 106 -10 66 -6 68 -5 63 16 -5 17 1 24 34 37
26 10 41 23 45 39 8 31 23 20 16 -13 -4 -20 -2 -25 7 -19 18 10 8 128 -13 160
-16 24 -34 37 -20 13 4 -7 3 -8 -5 -4 -6 4 -9 11 -6 16 3 5 -3 15 -14 22 -12
9 -24 36 -31 75 -7 34 -17 61 -22 60 -6 -1 -12 4 -13 11 -2 7 -1 8 2 2 2 -5 9
-8 14 -4 5 3 21 -9 35 -26 15 -17 29 -28 32 -25 3 3 -6 18 -20 33 -49 53 -78
106 -78 144 0 20 -7 43 -15 52 -8 8 -15 21 -15 30 0 8 -4 18 -10 21 -5 3 -10
14 -10 23 1 15 2 15 15 -2 8 -11 15 -15 15 -9 0 16 55 21 299 28 118 3 218 8
222 11 17 10 9 31 -17 43 -21 9 -32 9 -54 -3 -16 -7 -31 -11 -34 -8 -6 5 -44
12 -76 12 -28 1 -80 -12 -80 -20 0 -4 -27 -8 -60 -9 -34 -1 -60 3 -60 9 0 16
-96 12 -110 -5 -7 -8 -17 -15 -23 -15 -6 0 -7 3 -4 7 4 3 2 12 -4 20 -9 10 -5
13 21 13 43 0 31 11 -25 26 -36 9 -45 8 -45 -2 0 -7 -4 -14 -8 -16 -13 -5 -52
-96 -52 -123 0 -13 7 -42 15 -62 8 -21 16 -47 18 -58 1 -11 20 -56 40 -99 21
-43 36 -85 33 -93 -3 -8 -2 -12 3 -9 15 10 34 -89 22 -113 -6 -11 -11 -39 -11
-63 -1 -43 -18 -78 -38 -78 -18 0 -59 57 -77 107 -9 26 -21 56 -26 65 -5 10
-9 38 -9 62 0 24 -11 86 -24 137 -16 61 -21 99 -16 110 12 21 21 77 27 162 3
47 8 65 16 60 7 -4 6 1 -2 10 -12 16 -11 21 12 45 29 30 35 72 14 94 -15 15
-18 48 -5 48 4 0 22 -13 39 -30 27 -25 30 -32 19 -45 -10 -13 -10 -19 5 -35
14 -15 21 -17 41 -8 13 6 24 15 24 20 0 5 -4 6 -10 3 -5 -3 -8 0 -5 7 3 7 -8
20 -25 30 -16 9 -36 32 -44 51 -15 36 -47 62 -61 49 -3 -4 -5 -1 -3 6 4 18
-40 51 -77 56 -16 3 -51 -1 -77 -7z m-30 -42 c-2 -1 -13 -8 -26 -14 -22 -12
-23 -11 -13 8 7 12 17 18 27 14 8 -3 14 -7 12 -8z m-78 -51 c0 -8 -5 -12 -10
-9 -6 4 -8 11 -5 16 9 14 15 11 15 -7z m20 -79 c14 -8 34 -14 46 -15 23 0 64
-31 64 -49 0 -6 3 -11 8 -11 4 0 5 -25 4 -56 -4 -51 -6 -55 -25 -51 -73 18
-100 19 -108 6 -13 -20 -11 -29 6 -29 8 0 15 -9 15 -20 0 -23 37 -36 75 -26
15 4 25 2 25 -4 0 -16 -62 -70 -87 -76 -13 -4 -23 -10 -23 -15 0 -16 -30 -9
-78 17 -26 14 -49 28 -51 30 -3 2 -6 29 -7 59 -2 41 1 55 11 55 7 0 22 3 32 6
15 5 15 4 3 -5 -13 -9 -13 -11 3 -11 9 0 17 4 17 10 0 5 7 7 15 4 26 -10 17
18 -17 53 -18 18 -38 33 -46 33 -8 0 0 10 19 23 25 17 33 30 31 47 -4 39 25
49 68 25z m137 -137 c-3 -8 -6 -5 -6 6 -1 11 2 17 5 13 3 -3 4 -12 1 -19z
m-505 -80 c-7 -7 -12 -8 -12 -2 0 14 12 26 19 19 2 -3 -1 -11 -7 -17z m473 12
c8 -13 -5 -13 -25 0 -13 8 -13 10 2 10 9 0 20 -4 23 -10z m-449 -26 c-4 -9 -9
-15 -11 -12 -3 3 -3 13 1 22 4 9 9 15 11 12 3 -3 3 -13 -1 -22z m-146 -123 c0
-25 5 -41 15 -45 10 -3 15 -19 15 -46 0 -22 -2 -40 -5 -40 -15 0 -113 24 -127
31 -16 8 -16 13 -3 50 8 23 12 45 9 50 -5 9 9 13 33 10 7 -1 22 3 34 9 20 11
20 12 2 26 -17 14 -16 14 5 4 17 -8 22 -19 22 -49z m409 -7 c14 -12 -19 -1
-35 12 -18 14 -18 14 6 3 14 -6 27 -13 29 -15z m21 -34 c18 0 29 -4 25 -10 -7
-12 -65 -13 -80 -2 -5 4 -17 16 -25 26 -15 19 -14 19 17 3 18 -10 46 -17 63
-17z m-202 3 c-2 -10 -12 -18 -23 -18 -11 0 -23 -4 -26 -9 -4 -4 -6 4 -6 18 0
22 4 26 29 26 23 0 29 -4 26 -17z m-488 -98 c0 -5 -5 -3 -10 5 -5 8 -10 20
-10 25 0 6 5 3 10 -5 5 -8 10 -19 10 -25z m0 -57 c0 -15 -3 -15 -30 -1 -30 15
-32 40 -2 28 14 -5 14 -3 -1 13 -9 10 -17 23 -17 28 0 16 49 -51 50 -68z m423
37 c-3 -9 -8 -14 -10 -11 -3 3 -2 9 2 15 9 16 15 13 8 -4z m51 -26 c-30 -12
-37 -10 -24 5 6 8 19 12 27 9 14 -6 14 -8 -3 -14z m701 -19 c3 -5 1 -10 -4
-10 -6 0 -11 5 -11 10 0 6 2 10 4 10 3 0 8 -4 11 -10z m-1201 -41 c32 -18 49
-49 29 -49 -12 0 -89 49 -78 50 6 0 3 5 -5 10 -32 20 18 10 54 -11z m301 -17
c-5 -25 -26 -47 -38 -40 -1 1 -12 -4 -24 -10 -40 -22 -33 5 13 48 25 23 48 39
51 37 3 -3 2 -19 -2 -35z m360 7 c2 -2 -13 -23 -33 -47 l-37 -43 3 50 c4 49 5
50 33 47 17 -2 32 -5 34 -7z m-195 -8 c0 -12 -20 -25 -27 -18 -7 7 6 27 18 27
5 0 9 -4 9 -9z m235 -1 c-3 -5 -1 -10 4 -10 6 0 11 5 11 11 0 5 5 7 10 4 20
-12 10 -41 -18 -51 -44 -17 -55 -7 -30 27 21 27 36 41 23 19z m-126 -116 c18
-15 35 -24 38 -21 3 4 19 -5 36 -19 18 -15 38 -23 49 -21 10 3 15 1 12 -4 -3
-5 2 -12 11 -16 10 -3 21 0 26 8 5 9 9 10 9 2 0 -6 -8 -20 -17 -29 -17 -17
-17 -18 2 -10 43 17 55 18 55 4 0 -26 -27 -53 -41 -42 -25 19 -109 46 -125 40
-8 -3 -12 -2 -9 4 3 5 -12 14 -34 20 -22 6 -47 17 -55 26 -9 8 -20 13 -25 10
-5 -4 -21 -1 -35 6 -25 11 -25 12 -10 30 16 17 16 18 -2 18 -16 0 -17 2 -4 10
8 5 11 10 6 10 -6 0 -1 6 9 14 23 16 50 6 104 -40z m378 4 c-3 -8 -6 -5 -6 6
-1 11 2 17 5 13 3 -3 4 -12 1 -19z m-242 -28 c3 -5 -1 -10 -9 -10 -8 0 -18 5
-21 10 -3 6 1 10 9 10 8 0 18 -4 21 -10z m492 -27 c-3 -10 -5 -4 -5 12 0 17 2
24 5 18 2 -7 2 -21 0 -30z m-257 -77 c-1 -29 -33 -43 -92 -38 -27 3 -10 32 18
32 14 0 27 6 30 14 6 16 44 9 44 -8z"/>
<path d="M2506 903 c-6 -14 -5 -15 5 -6 7 7 10 15 7 18 -3 3 -9 -2 -12 -12z"/>
<path d="M2475 858 c-10 -26 3 -38 40 -38 25 0 37 6 46 21 9 17 8 20 -3 13
-20 -14 -52 -11 -65 6 -10 13 -12 13 -18 -2z"/>
<path d="M2891 1024 c0 -11 3 -14 6 -6 3 7 2 16 -1 19 -3 4 -6 -2 -5 -13z"/>
<path d="M3250 1010 c-13 -8 -12 -10 3 -10 9 0 17 5 17 10 0 12 -1 12 -20 0z"/>
<path d="M2043 987 c-32 -6 -53 -16 -53 -24 0 -7 5 -13 11 -13 5 0 8 4 5 8 -3
5 2 9 10 9 10 0 11 -4 5 -10 -7 -7 -5 -15 7 -24 16 -12 15 -12 -3 -6 -11 3
-31 15 -44 24 -17 14 -36 17 -73 14 -40 -3 -47 -1 -38 10 8 10 1 12 -42 11
-29 -1 -63 -7 -75 -14 -29 -16 -38 -15 -23 3 11 13 9 15 -13 15 -14 0 -28 -7
-31 -16 -3 -8 -10 -12 -16 -9 -6 4 -8 11 -4 16 5 9 -1293 10 -1568 1 l-98 -3
0 -76 0 -75 30 4 c30 5 41 -6 18 -15 -7 -3 0 -6 16 -6 22 -1 27 2 22 15 -5 14
-1 16 22 11 16 -3 62 -8 103 -10 41 -2 57 -2 36 0 -48 5 -48 23 1 25 42 1 43
1 137 -7 39 -4 117 -8 175 -9 l105 -3 -100 7 c-81 5 -61 7 103 7 111 0 202 -4
202 -8 0 -7 -27 -12 -70 -11 -3 0 -16 3 -30 7 -21 7 -22 6 -10 -7 9 -8 36 -15
67 -16 43 -1 52 2 56 19 3 12 14 19 29 19 12 1 61 2 108 4 67 3 78 1 50 -6
-49 -13 -62 -29 -20 -24 19 2 69 5 110 6 41 2 65 5 53 7 -35 7 -27 23 10 21
24 -2 31 1 29 12 -3 12 -1 13 9 3 7 -7 21 -13 32 -13 18 0 81 41 104 68 19 23
163 28 218 8 24 -10 47 -17 50 -16 3 0 14 -8 23 -19 14 -16 33 -20 95 -23 63
-3 76 -1 72 11 -4 11 -3 12 10 1 8 -7 26 -10 40 -8 14 3 25 2 25 -1 0 -3 31
-5 69 -3 51 3 74 9 90 23 11 11 32 24 46 29 15 6 24 13 22 18 -3 4 9 7 25 7
22 0 32 5 34 18 1 9 -1 17 -4 18 -77 6 -127 5 -169 -4z m-209 -16 c4 -5 -1 -8
-9 -7 -21 3 -31 16 -12 16 9 0 18 -4 21 -9z m-1210 -16 c6 -16 -10 -20 -39 -9
-13 5 -14 8 -3 15 20 13 35 11 42 -6z m110 -27 c-7 -11 -46 -10 -64 3 -12 8
-10 10 10 5 22 -4 23 -4 8 8 -29 22 -20 27 17 9 19 -9 32 -20 29 -25z m1067
25 c12 -16 12 -17 -2 -6 -9 7 -19 10 -22 6 -4 -3 -7 -1 -7 5 0 17 16 15 31 -5z
m312 2 c0 -6 -7 -11 -16 -13 -12 -3 -15 1 -11 13 7 17 25 17 27 0z m-1700 -46
c-14 -14 -77 -24 -69 -11 4 7 16 12 27 12 10 0 19 4 19 10 0 5 7 7 16 3 8 -3
12 -9 7 -14z m857 11 c0 -6 -12 -8 -26 -6 -39 7 -42 16 -6 16 18 0 32 -5 32
-10z m-1205 -6 c24 -10 0 -22 -32 -16 -18 3 -21 7 -11 13 16 11 22 11 43 3z
m970 -14 c3 -6 -1 -7 -9 -4 -18 7 -21 14 -7 14 6 0 13 -4 16 -10z m-190 -20
c13 -5 14 -9 5 -9 -8 0 -24 4 -35 9 -13 5 -14 9 -5 9 8 0 24 -4 35 -9z"/>
<path d="M348 833 c6 -2 18 -2 25 0 6 3 1 5 -13 5 -14 0 -19 -2 -12 -5z"/>
<path d="M78 783 c6 -2 18 -2 25 0 6 3 1 5 -13 5 -14 0 -19 -2 -12 -5z"/>
<path d="M717 523 c-16 -3 -31 -12 -34 -20 -8 -20 22 -43 47 -36 11 3 42 0 70
-7 47 -11 53 -11 73 8 12 12 33 25 47 30 22 9 18 11 -33 17 -31 4 -66 5 -77 2
-11 -3 -23 -1 -26 4 -5 9 -16 9 -67 2z"/>
<path d="M3325 470 c3 -5 11 -10 16 -10 6 0 7 5 4 10 -3 6 -11 10 -16 10 -6 0
-7 -4 -4 -10z"/>
<path d="M1690 354 c0 -8 5 -12 10 -9 6 3 10 10 10 16 0 5 -4 9 -10 9 -5 0
-10 -7 -10 -16z"/>
<path d="M1735 360 c-25 -10 -9 -17 58 -23 l49 -5 -33 20 c-22 13 -35 16 -37
9 -2 -6 -8 -11 -13 -11 -6 0 -7 5 -4 10 7 11 7 11 -20 0z"/>
<path d="M2148 273 c7 -3 16 -2 19 1 4 3 -2 6 -13 5 -11 0 -14 -3 -6 -6z"/>
<path d="M2870 191 c19 -4 46 -11 60 -14 20 -6 19 -4 -5 8 -16 8 -43 14 -60
13 -29 0 -29 0 5 -7z"/>
<path d="M2980 191 c0 -5 12 -11 27 -14 26 -5 26 -4 8 9 -22 16 -35 18 -35 5z"/>
<path d="M3150 196 c0 -2 8 -10 18 -17 15 -13 16 -12 3 4 -13 16 -21 21 -21
13z"/>
<path d="M3055 160 c3 -5 11 -10 16 -10 6 0 7 5 4 10 -3 6 -11 10 -16 10 -6 0
-7 -4 -4 -10z"/>
</g>
</svg>
