<?xml version="1.0" standalone="no"?>
<!DOCTYPE svg PUBLIC "-//W3C//DTD SVG 20010904//EN"
 "http://www.w3.org/TR/2001/REC-SVG-20010904/DTD/svg10.dtd">
<svg version="1.0" xmlns="http://www.w3.org/2000/svg"
 width="150.000000pt" height="150.000000pt" viewBox="0 0 150.000000 150.000000"
 preserveAspectRatio="xMidYMid meet">

<g transform="translate(0.000000,150.000000) scale(0.100000,-0.100000)"
fill="#000000" stroke="none">
<path d="M680 1375 l0 -85 54 0 c63 0 92 20 81 54 -4 12 -7 38 -6 58 2 45 -17
58 -83 58 l-46 0 0 -85z m88 32 c3 -12 -3 -17 -22 -17 -25 0 -35 18 -19 34 12
12 38 2 41 -17z m7 -67 c0 -23 -49 -20 -53 3 -3 15 2 18 25 15 17 -2 28 -9 28
-18z"/>
<path d="M886 1383 c-10 -38 -21 -75 -23 -84 -4 -13 8 -21 48 -33 52 -15 79
-10 65 12 -3 6 -20 13 -36 17 -18 4 -30 13 -30 22 0 12 8 14 35 10 30 -5 35
-3 35 14 0 12 -7 19 -20 19 -20 0 -38 25 -27 36 3 3 21 1 40 -4 33 -9 47 -2
47 23 0 1 -20 8 -44 14 -24 6 -50 13 -58 16 -10 4 -19 -12 -32 -62z"/>
<path d="M478 1400 c-26 -27 -30 -36 -25 -68 8 -47 38 -72 89 -72 72 0 108 63
73 129 -26 52 -91 57 -137 11z m106 -42 c8 -22 6 -32 -9 -48 -25 -27 -57 -22
-73 12 -19 41 -1 70 41 66 24 -2 34 -10 41 -30z"/>
<path d="M1054 1307 c-35 -61 -39 -73 -26 -81 11 -6 20 -2 33 15 20 26 26 19
31 -35 4 -40 25 -44 33 -6 4 20 15 34 31 40 27 11 42 55 27 79 -5 9 -27 26
-49 38 l-39 21 -41 -71z m91 -11 c0 -22 -14 -29 -34 -17 -19 12 -6 43 16 39
10 -2 18 -12 18 -22z"/>
<path d="M316 1329 c-51 -40 -24 -89 51 -89 51 0 55 -17 6 -34 -30 -11 -35
-36 -7 -36 26 0 72 29 79 50 3 10 1 28 -5 40 -9 16 -21 20 -61 20 -54 0 -63
16 -21 35 12 5 22 15 22 22 0 20 -34 15 -64 -8z"/>
<path d="M607 1229 c-107 -35 -177 -79 -240 -149 -58 -64 -89 -123 -118 -222
-26 -91 -26 -105 0 -198 48 -166 166 -294 326 -352 82 -30 238 -36 325 -14 83
21 174 73 245 138 48 44 56 56 51 79 -3 15 4 49 16 80 28 75 35 197 14 276
-45 176 -177 312 -347 357 -30 8 -67 19 -82 25 -44 17 -95 12 -190 -20z m23
-19 c0 -6 -10 -14 -23 -19 -13 -5 -29 -16 -37 -26 -12 -14 -11 -21 4 -50 24
-43 29 -84 14 -112 -8 -17 -8 -26 2 -37 6 -9 14 -33 17 -53 6 -45 17 -54 56
-46 27 5 28 4 25 -23 -2 -24 -13 -34 -55 -55 l-51 -26 -6 28 c-17 87 -178 127
-275 68 -18 -11 -35 -18 -37 -16 -2 2 5 30 16 62 47 136 141 235 277 291 66
27 73 28 73 14z m356 -46 c147 -81 238 -237 238 -409 0 -74 -27 -196 -43 -194
-3 0 -31 34 -61 76 -30 42 -68 91 -84 110 -25 29 -27 37 -18 58 12 26 7 55
-10 55 -6 0 -8 6 -5 13 20 53 19 58 -16 90 -25 23 -36 43 -40 73 -4 37 -2 43
20 53 l25 11 -42 35 c-23 19 -46 35 -51 35 -4 0 -13 10 -20 21 -10 20 -9 21
17 15 16 -4 57 -23 90 -42z m-546 -309 c16 -8 34 -24 40 -35 14 -26 4 -25 -30
3 -15 12 -36 27 -46 34 -28 17 2 16 36 -2z m85 -15 c27 -29 15 -32 -18 -4 -16
14 -22 24 -14 24 8 0 22 -9 32 -20z m-135 -12 c19 -13 35 -29 38 -37 3 -8 -12
-2 -34 13 -21 14 -44 26 -51 26 -6 0 -15 5 -18 10 -11 18 32 10 65 -12z m139
-188 c-21 -40 -21 -43 -5 -77 12 -25 14 -39 7 -46 -15 -15 -41 52 -41 102 0
34 4 42 28 54 15 7 28 13 30 11 2 -1 -7 -21 -19 -44z m-224 16 c20 -14 53 -30
73 -37 47 -15 49 -18 57 -97 4 -36 13 -82 21 -104 12 -36 12 -38 -5 -29 -61
33 -164 181 -185 264 -8 33 -6 33 39 3z m700 -87 c25 -23 45 -48 45 -56 0 -18
-70 -102 -110 -131 -28 -21 -31 -22 -55 -6 -14 9 -25 23 -25 31 0 21 83 203
93 203 4 0 28 -19 52 -41z m-405 -180 c0 -17 -5 -39 -10 -50 -9 -16 -14 -17
-33 -8 -12 7 -24 13 -25 15 -6 4 52 74 61 74 4 0 7 -14 7 -31z"/>
<path d="M197 548 c-12 -6 -17 -22 -17 -48 0 -49 -27 -56 -36 -10 -4 17 -11
30 -16 30 -17 0 -19 -29 -3 -59 12 -24 22 -31 44 -31 31 0 41 14 41 61 0 33
16 39 25 9 3 -11 13 -20 21 -20 18 0 18 4 -1 39 -17 34 -35 43 -58 29z"/>
<path d="M1256 545 c-3 -9 3 -19 14 -25 22 -12 24 -18 11 -39 -6 -10 -13 -10
-29 -2 -15 8 -23 7 -31 -3 -16 -19 97 -90 118 -73 11 9 8 15 -13 32 -23 18
-25 23 -13 39 12 16 16 17 35 5 17 -11 24 -11 34 -1 6 6 10 13 7 15 -18 14
-111 67 -118 67 -5 0 -11 -7 -15 -15z"/>
<path d="M225 415 c-30 -30 -31 -54 -4 -89 28 -36 80 -36 108 0 27 35 27 65
-2 92 -31 29 -72 28 -102 -3z m76 -15 c23 -13 24 -33 3 -54 -21 -22 -51 -20
-64 4 -8 15 -6 24 10 40 23 23 25 23 51 10z"/>
<path d="M1165 407 c-55 -46 -26 -127 45 -127 19 0 37 10 55 32 l26 31 -25 25
c-25 25 -26 25 -46 7 -21 -19 -19 -30 6 -30 19 0 19 -18 0 -30 -40 -25 -75 45
-37 74 13 11 18 21 12 29 -6 11 -14 8 -36 -11z"/>
<path d="M361 307 c-29 -53 -25 -87 12 -105 36 -17 62 -1 94 56 19 34 20 41 8
46 -10 3 -24 -8 -40 -33 -29 -47 -37 -52 -55 -40 -13 7 -11 17 12 58 15 27 24
52 21 55 -15 14 -30 3 -52 -37z"/>
<path d="M1067 324 c-3 -3 5 -24 19 -46 28 -43 26 -68 -4 -68 -12 0 -24 11
-32 30 -15 35 -35 54 -50 45 -15 -9 38 -105 59 -106 44 -3 81 21 81 53 0 48
-51 113 -73 92z"/>
<path d="M491 218 c-10 -35 -17 -66 -14 -70 9 -16 33 -7 33 12 0 31 28 24 32
-7 2 -18 10 -29 22 -31 16 -3 18 0 12 23 -5 21 -2 31 14 42 31 22 22 55 -20
75 -19 9 -40 17 -47 18 -7 0 -21 -28 -32 -62z m79 1 c0 -14 -5 -19 -17 -17
-26 5 -29 38 -4 38 15 0 21 -6 21 -21z"/>
<path d="M864 248 c-49 -23 -53 -93 -7 -123 53 -35 123 3 123 66 0 59 -56 86
-116 57z m70 -34 c9 -8 16 -22 16 -29 0 -18 -27 -45 -45 -45 -18 0 -45 27 -45
45 0 18 27 45 45 45 7 0 21 -7 29 -16z"/>
<path d="M646 203 c-3 -21 -6 -53 -6 -70 0 -32 1 -33 45 -33 92 0 129 87 54
125 -15 8 -41 15 -57 15 -26 0 -30 -4 -36 -37z m88 -15 c14 -23 -3 -52 -33
-56 -19 -3 -21 1 -21 38 0 37 2 41 21 38 12 -2 27 -11 33 -20z"/>
</g>
</svg>
